<svg class="main-svg" xmlns="http://www.w3.org/2000/svg" xmlns:xlink="http://www.w3.org/1999/xlink" width="700" height="500" style="" viewBox="0 0 700 500"><rect x="0" y="0" width="700" height="500" style="fill: rgb(17, 17, 17); fill-opacity: 1;"/><defs id="defs-9706bb"><g class="clips"><clipPath id="clip9706bbxyplot" class="plotclip"><rect width="426" height="320"/></clipPath><clipPath class="axesclip" id="clip9706bbx"><rect x="80" y="0" width="426" height="500"/></clipPath><clipPath class="axesclip" id="clip9706bby"><rect x="0" y="100" width="700" height="320"/></clipPath><clipPath class="axesclip" id="clip9706bbxy"><rect x="80" y="100" width="426" height="320"/></clipPath></g><g class="gradients"/><g class="patterns"/></defs><g class="bglayer"/><g class="layer-below"><g class="imagelayer"/><g class="shapelayer"/></g><g class="cartesianlayer"><g class="subplot xy"><g class="layer-subplot"><g class="shapelayer"/><g class="imagelayer"/></g><g class="minor-gridlayer"><g class="x"/><g class="y"/></g><g class="gridlayer"><g class="x"><path class="xgrid crisp" transform="translate(123.55,0)" d="M0,100v320" style="stroke: rgb(40, 52, 66); stroke-opacity: 1; stroke-width: 1px;"/><path class="xgrid crisp" transform="translate(200.91,0)" d="M0,100v320" style="stroke: rgb(40, 52, 66); stroke-opacity: 1; stroke-width: 1px;"/><path class="xgrid crisp" transform="translate(278.38,0)" d="M0,100v320" style="stroke: rgb(40, 52, 66); stroke-opacity: 1; stroke-width: 1px;"/><path class="xgrid crisp" transform="translate(355.73,0)" d="M0,100v320" style="stroke: rgb(40, 52, 66); stroke-opacity: 1; stroke-width: 1px;"/><path class="xgrid crisp" transform="translate(433.2,0)" d="M0,100v320" style="stroke: rgb(40, 52, 66); stroke-opacity: 1; stroke-width: 1px;"/></g><g class="y"><path class="ygrid crisp" transform="translate(0,372.35)" d="M80,0h426" style="stroke: rgb(40, 52, 66); stroke-opacity: 1; stroke-width: 1px;"/><path class="ygrid crisp" transform="translate(0,324.69)" d="M80,0h426" style="stroke: rgb(40, 52, 66); stroke-opacity: 1; stroke-width: 1px;"/><path class="ygrid crisp" transform="translate(0,277.03999999999996)" d="M80,0h426" style="stroke: rgb(40, 52, 66); stroke-opacity: 1; stroke-width: 1px;"/><path class="ygrid crisp" transform="translate(0,229.38)" d="M80,0h426" style="stroke: rgb(40, 52, 66); stroke-opacity: 1; stroke-width: 1px;"/><path class="ygrid crisp" transform="translate(0,181.73000000000002)" d="M80,0h426" style="stroke: rgb(40, 52, 66); stroke-opacity: 1; stroke-width: 1px;"/><path class="ygrid crisp" transform="translate(0,134.07)" d="M80,0h426" style="stroke: rgb(40, 52, 66); stroke-opacity: 1; stroke-width: 1px;"/></g></g><g class="zerolinelayer"><path class="yzl zl crisp" transform="translate(0,420)" d="M80,0h426" style="stroke: rgb(40, 52, 66); stroke-opacity: 1; stroke-width: 2px;"/></g><path class="xlines-below"/><path class="ylines-below"/><g class="overlines-below"/><g class="xaxislayer-below"/><g class="yaxislayer-below"/><g class="overaxes-below"/><g class="plot" transform="translate(80,100)" clip-path="url(#clip9706bbxyplot)"><g class="scatterlayer mlayer"><g class="trace scatter tracecdb469" style="stroke-miterlimit: 2;"><g class="fills"><g><path class="js-fill" d="M426,320L0,320L0,319.96L63.58,319.23L98.55,319.09L104.91,318.68L111.27,318.63L127.16,317.89L130.34,317.73L143.06,316.81L146.24,316.23L155.78,314.42L158.96,313.39L168.49,310.86L171.67,308.42L178.03,305.78L181.21,305.02L193.93,301.86L197.1,300.63L216.18,296.27L219.36,295.72L235.25,293.07L238.43,291.4L241.61,290.27L244.79,287.19L254.33,285.46L257.51,284.93L267.04,283.06L270.22,282.17L273.4,278.71L276.58,278.01L282.94,275.98L286.12,271.22L289.3,270.85L292.48,262.29L295.66,259.8L298.84,258.31L302.01,256.17L305.19,252.76L308.37,251.27L311.55,248.61L317.91,241.26L321.09,239.84L324.27,235.76L327.45,230.04L333.81,218.58L336.99,215.42L343.34,207.21L346.52,203.15L356.06,192.57L359.24,187.34L362.42,179.51L365.6,175.57L368.78,172.47L371.96,166.46L378.31,157.88L381.49,151.12L387.85,136.08L391.03,129.3L397.39,111.61L400.57,100.64L413.28,80.83L416.46,78.89L422.82,74.58L426,72.31" style="fill: rgb(186, 176, 172); fill-opacity: 0.5; stroke-width: 0;"/></g><g><path class="js-fill" d="M0,319.96L47.69,319.27L50.87,319.17L63.58,319.13L98.55,319.09L104.91,318.56L111.27,318.63L123.99,318.12L127.16,317.77L139.88,316.96L143.06,316.81L158.96,313.39L162.13,312.56L168.49,310.46L171.67,307.98L178.03,305.26L181.21,304.49L193.93,301.27L197.1,299.99L203.46,298.38L206.64,298.32L209.82,296.75L213,296.33L219.36,294.96L222.54,295.25L228.9,293.3L232.07,293.54L241.61,289.39L244.79,286.15L251.15,284.6L254.33,284.06L267.04,281.29L270.22,280.27L273.4,276.52L276.58,275.78L282.94,273.63L286.12,268.87L289.3,268.49L292.48,259.75L295.66,257.04L298.84,255.35L302.01,253.06L305.19,249.17L308.37,247.37L311.55,244.34L317.91,236.8L321.09,234.66L324.27,230.28L327.45,224.33L333.81,211.99L336.99,208.63L343.34,199.7L346.52,195.2L356.06,182.5L359.24,176.5L362.42,167.68L365.6,163.22L368.78,159.37L371.96,152.2L378.31,140.66L381.49,132.54L394.21,90.83L397.39,76.49L400.57,62.31L403.75,55.68L413.28,31.31L416.46,27.36L422.82,19.56L426,16L426,72.31L422.82,74.58L416.46,78.89L413.28,80.83L400.57,100.64L397.39,111.61L391.03,129.3L387.85,136.08L381.49,151.12L378.31,157.88L371.96,166.46L368.78,172.47L365.6,175.57L362.42,179.51L359.24,187.34L356.06,192.57L346.52,203.15L343.34,207.21L336.99,215.42L333.81,218.58L327.45,230.04L324.27,235.76L321.09,239.84L317.91,241.26L311.55,248.61L308.37,251.27L305.19,252.76L302.01,256.17L298.84,258.31L295.66,259.8L292.48,262.29L289.3,270.85L286.12,271.22L282.94,275.98L276.58,278.01L273.4,278.71L270.22,282.17L267.04,283.06L257.51,284.93L254.33,285.46L244.79,287.19L241.61,290.27L238.43,291.4L235.25,293.07L219.36,295.72L216.18,296.27L197.1,300.63L193.93,301.86L181.21,305.02L178.03,305.78L171.67,308.42L168.49,310.86L158.96,313.39L155.78,314.42L146.24,316.23L143.06,316.81L130.34,317.73L127.16,317.89L111.27,318.63L104.91,318.68L98.55,319.09L63.58,319.23L0,319.96Z" style="fill: rgb(157, 117, 93); fill-opacity: 0.5; stroke-width: 0;"/></g></g><g class="errorbars"/><g class="lines"><path class="js-line" d="M0,319.96L63.58,319.23L98.55,319.09L104.91,318.68L111.27,318.63L127.16,317.89L130.34,317.73L143.06,316.81L146.24,316.23L155.78,314.42L158.96,313.39L168.49,310.86L171.67,308.42L178.03,305.78L181.21,305.02L193.93,301.86L197.1,300.63L216.18,296.27L219.36,295.72L235.25,293.07L238.43,291.4L241.61,290.27L244.79,287.19L254.33,285.46L257.51,284.93L267.04,283.06L270.22,282.17L273.4,278.71L276.58,278.01L282.94,275.98L286.12,271.22L289.3,270.85L292.48,262.29L295.66,259.8L298.84,258.31L302.01,256.17L305.19,252.76L308.37,251.27L311.55,248.61L317.91,241.26L321.09,239.84L324.27,235.76L327.45,230.04L333.81,218.58L336.99,215.42L343.34,207.21L346.52,203.15L356.06,192.57L359.24,187.34L362.42,179.51L365.6,175.57L368.78,172.47L371.96,166.46L378.31,157.88L381.49,151.12L387.85,136.08L391.03,129.3L397.39,111.61L400.57,100.64L413.28,80.83L416.46,78.89L422.82,74.58L426,72.31" style="vector-effect: none; fill: none; stroke: rgb(186, 176, 172); stroke-opacity: 1; stroke-width: 2px; opacity: 1;"/></g><g class="points"/><g class="text"/></g><g class="trace scatter traced06046" style="stroke-miterlimit: 2;"><g class="fills"/><g class="errorbars"/><g class="lines"><path class="js-line" d="M0,319.96L47.69,319.27L50.87,319.17L63.58,319.13L98.55,319.09L104.91,318.56L111.27,318.63L123.99,318.12L127.16,317.77L139.88,316.96L143.06,316.81L158.96,313.39L162.13,312.56L168.49,310.46L171.67,307.98L178.03,305.26L181.21,304.49L193.93,301.27L197.1,299.99L203.46,298.38L206.64,298.32L209.82,296.75L213,296.33L219.36,294.96L222.54,295.25L228.9,293.3L232.07,293.54L241.61,289.39L244.79,286.15L251.15,284.6L254.33,284.06L267.04,281.29L270.22,280.27L273.4,276.52L276.58,275.78L282.94,273.63L286.12,268.87L289.3,268.49L292.48,259.75L295.66,257.04L298.84,255.35L302.01,253.06L305.19,249.17L308.37,247.37L311.55,244.34L317.91,236.8L321.09,234.66L324.27,230.28L327.45,224.33L333.81,211.99L336.99,208.63L343.34,199.7L346.52,195.2L356.06,182.5L359.24,176.5L362.42,167.68L365.6,163.22L368.78,159.37L371.96,152.2L378.31,140.66L381.49,132.54L394.21,90.83L397.39,76.49L400.57,62.31L403.75,55.68L413.28,31.31L416.46,27.36L422.82,19.56L426,16" style="vector-effect: none; fill: none; stroke: rgb(157, 117, 93); stroke-opacity: 1; stroke-width: 2px; opacity: 1;"/></g><g class="points"/><g class="text"/></g></g></g><g class="overplot"/><path class="xlines-above crisp" d="M0,0" style="fill: none;"/><path class="ylines-above crisp" d="M0,0" style="fill: none;"/><g class="overlines-above"/><g class="xaxislayer-above"><g class="xtick"><text text-anchor="middle" x="0" y="433" transform="translate(123.55,0)" style="font-family: Raleway; font-size: 12px; fill: rgb(242, 245, 250); fill-opacity: 1; white-space: pre; opacity: 1;">2014</text></g><g class="xtick"><text text-anchor="middle" x="0" y="433" style="font-family: Raleway; font-size: 12px; fill: rgb(242, 245, 250); fill-opacity: 1; white-space: pre; opacity: 1;" transform="translate(200.91,0)">2016</text></g><g class="xtick"><text text-anchor="middle" x="0" y="433" style="font-family: Raleway; font-size: 12px; fill: rgb(242, 245, 250); fill-opacity: 1; white-space: pre; opacity: 1;" transform="translate(278.38,0)">2018</text></g><g class="xtick"><text text-anchor="middle" x="0" y="433" style="font-family: Raleway; font-size: 12px; fill: rgb(242, 245, 250); fill-opacity: 1; white-space: pre; opacity: 1;" transform="translate(355.73,0)">2020</text></g><g class="xtick"><text text-anchor="middle" x="0" y="433" style="font-family: Raleway; font-size: 12px; fill: rgb(242, 245, 250); fill-opacity: 1; white-space: pre; opacity: 1;" transform="translate(433.2,0)">2022</text></g></g><g class="yaxislayer-above"><g class="ytick"><text text-anchor="end" x="79" y="4.199999999999999" transform="translate(0,420)" style="font-family: Raleway; font-size: 12px; fill: rgb(242, 245, 250); fill-opacity: 1; white-space: pre; opacity: 1;">0</text></g><g class="ytick"><text text-anchor="end" x="79" y="4.199999999999999" style="font-family: Raleway; font-size: 12px; fill: rgb(242, 245, 250); fill-opacity: 1; white-space: pre; opacity: 1;" transform="translate(0,372.35)">10k</text></g><g class="ytick"><text text-anchor="end" x="79" y="4.199999999999999" style="font-family: Raleway; font-size: 12px; fill: rgb(242, 245, 250); fill-opacity: 1; white-space: pre; opacity: 1;" transform="translate(0,324.69)">20k</text></g><g class="ytick"><text text-anchor="end" x="79" y="4.199999999999999" style="font-family: Raleway; font-size: 12px; fill: rgb(242, 245, 250); fill-opacity: 1; white-space: pre; opacity: 1;" transform="translate(0,277.03999999999996)">30k</text></g><g class="ytick"><text text-anchor="end" x="79" y="4.199999999999999" style="font-family: Raleway; font-size: 12px; fill: rgb(242, 245, 250); fill-opacity: 1; white-space: pre; opacity: 1;" transform="translate(0,229.38)">40k</text></g><g class="ytick"><text text-anchor="end" x="79" y="4.199999999999999" style="font-family: Raleway; font-size: 12px; fill: rgb(242, 245, 250); fill-opacity: 1; white-space: pre; opacity: 1;" transform="translate(0,181.73000000000002)">50k</text></g><g class="ytick"><text text-anchor="end" x="79" y="4.199999999999999" style="font-family: Raleway; font-size: 12px; fill: rgb(242, 245, 250); fill-opacity: 1; white-space: pre; opacity: 1;" transform="translate(0,134.07)">60k</text></g></g><g class="overaxes-above"/></g></g><g class="polarlayer"/><g class="smithlayer"/><g class="ternarylayer"/><g class="geolayer"/><g class="funnelarealayer"/><g class="pielayer"/><g class="iciclelayer"/><g class="treemaplayer"/><g class="sunburstlayer"/><g class="glimages"/><defs id="topdefs-9706bb"><g class="clips"/><clipPath id="legend9706bb"><rect width="173" height="67" x="0" y="0"/></clipPath></defs><g class="layer-above"><g class="imagelayer"/><g class="shapelayer"/></g><g class="infolayer"><g class="legend" pointer-events="all" transform="translate(514.52,100)"><rect class="bg" shape-rendering="crispEdges" width="173" height="67" x="0" y="0" style="stroke: rgb(68, 68, 68); stroke-opacity: 1; fill: rgb(17, 17, 17); fill-opacity: 1; stroke-width: 0px;"/><g class="scrollbox" transform="" clip-path="url(#legend9706bb)"><text class="legendtitletext" text-anchor="start" x="2" y="18.2" style="font-family: Raleway; font-size: 14px; fill: rgb(242, 245, 250); fill-opacity: 1; white-space: pre;">Possède une prise combo</text><g class="groups" transform=""><g class="traces" transform="translate(0,32.7)" style="opacity: 1;"><text class="legendtext" text-anchor="start" x="40" y="4.680000000000001" style="font-family: Raleway; font-size: 12px; fill: rgb(242, 245, 250); fill-opacity: 1; white-space: pre;">Non</text><g class="layers"><g class="legendfill"><path class="js-fill" d="M5,-2h30v6h-30z" style="stroke-width: 0; fill: rgb(186, 176, 172); fill-opacity: 0.5;"/></g><g class="legendlines"><path class="js-line" d="M5,-2h30" style="fill: none; stroke: rgb(186, 176, 172); stroke-opacity: 1; stroke-width: 2px;"/></g><g class="legendsymbols"><g class="legendpoints"/></g></g><rect class="legendtoggle" x="0" y="-9.5" width="63.3125" height="19" style="fill: rgb(0, 0, 0); fill-opacity: 0;"/></g></g><g class="groups" transform=""><g class="traces" transform="translate(0,51.7)" style="opacity: 1;"><text class="legendtext" text-anchor="start" x="40" y="4.680000000000001" style="font-family: Raleway; font-size: 12px; fill: rgb(242, 245, 250); fill-opacity: 1; white-space: pre;">Oui</text><g class="layers"><g class="legendfill"><path class="js-fill" d="M5,-2h30v6h-30z" style="stroke-width: 0; fill: rgb(157, 117, 93); fill-opacity: 0.5;"/></g><g class="legendlines"><path class="js-line" d="M5,-2h30" style="fill: none; stroke: rgb(157, 117, 93); stroke-opacity: 1; stroke-width: 2px;"/></g><g class="legendsymbols"><g class="legendpoints"/></g></g><rect class="legendtoggle" x="0" y="-9.5" width="63.3125" height="19" style="fill: rgb(0, 0, 0); fill-opacity: 0;"/></g></g></g><rect class="scrollbar" rx="20" ry="3" width="0" height="0" x="0" y="0" style="fill: rgb(128, 139, 164); fill-opacity: 1;"/></g><g class="g-gtitle"><text class="gtitle" x="35" y="50" text-anchor="start" dy="0em" style="font-family: Raleway; font-size: 17px; fill: rgb(242, 245, 250); opacity: 1; font-weight: normal; white-space: pre;">Nombre cumulé de points en fonction s'il possèdent une prise combo</text></g><g class="g-xtitle"><text class="xtitle" x="293" y="460.3" text-anchor="middle" style="font-family: Raleway; font-size: 14px; fill: rgb(242, 245, 250); opacity: 1; font-weight: normal; white-space: pre;">Date de mise en service</text></g><g class="g-ytitle"><text class="ytitle" transform="rotate(-90,33.746875,260)" x="33.746875" y="260" text-anchor="middle" style="font-family: Raleway; font-size: 14px; fill: rgb(242, 245, 250); opacity: 1; font-weight: normal; white-space: pre;">Nombre de points de charge</text></g></g></svg>