<svg class="main-svg" xmlns="http://www.w3.org/2000/svg" xmlns:xlink="http://www.w3.org/1999/xlink" width="700" height="500" style="" viewBox="0 0 700 500"><rect x="0" y="0" width="700" height="500" style="fill: rgb(17, 17, 17); fill-opacity: 1;"/><defs id="defs-64fd1c"><g class="clips"><clipPath id="clip64fd1cxyplot" class="plotclip"><rect width="426" height="320"/></clipPath><clipPath class="axesclip" id="clip64fd1cx"><rect x="80" y="0" width="426" height="500"/></clipPath><clipPath class="axesclip" id="clip64fd1cy"><rect x="0" y="100" width="700" height="320"/></clipPath><clipPath class="axesclip" id="clip64fd1cxy"><rect x="80" y="100" width="426" height="320"/></clipPath></g><g class="gradients"/><g class="patterns"/></defs><g class="bglayer"/><g class="layer-below"><g class="imagelayer"/><g class="shapelayer"/></g><g class="cartesianlayer"><g class="subplot xy"><g class="layer-subplot"><g class="shapelayer"/><g class="imagelayer"/></g><g class="minor-gridlayer"><g class="x"/><g class="y"/></g><g class="gridlayer"><g class="x"><path class="xgrid crisp" transform="translate(123.55,0)" d="M0,100v320" style="stroke: rgb(40, 52, 66); stroke-opacity: 1; stroke-width: 1px;"/><path class="xgrid crisp" transform="translate(200.91,0)" d="M0,100v320" style="stroke: rgb(40, 52, 66); stroke-opacity: 1; stroke-width: 1px;"/><path class="xgrid crisp" transform="translate(278.38,0)" d="M0,100v320" style="stroke: rgb(40, 52, 66); stroke-opacity: 1; stroke-width: 1px;"/><path class="xgrid crisp" transform="translate(355.73,0)" d="M0,100v320" style="stroke: rgb(40, 52, 66); stroke-opacity: 1; stroke-width: 1px;"/><path class="xgrid crisp" transform="translate(433.2,0)" d="M0,100v320" style="stroke: rgb(40, 52, 66); stroke-opacity: 1; stroke-width: 1px;"/></g><g class="y"><path class="ygrid crisp" transform="translate(0,363.08)" d="M80,0h426" style="stroke: rgb(40, 52, 66); stroke-opacity: 1; stroke-width: 1px;"/><path class="ygrid crisp" transform="translate(0,306.16999999999996)" d="M80,0h426" style="stroke: rgb(40, 52, 66); stroke-opacity: 1; stroke-width: 1px;"/><path class="ygrid crisp" transform="translate(0,249.25)" d="M80,0h426" style="stroke: rgb(40, 52, 66); stroke-opacity: 1; stroke-width: 1px;"/><path class="ygrid crisp" transform="translate(0,192.32999999999998)" d="M80,0h426" style="stroke: rgb(40, 52, 66); stroke-opacity: 1; stroke-width: 1px;"/><path class="ygrid crisp" transform="translate(0,135.41)" d="M80,0h426" style="stroke: rgb(40, 52, 66); stroke-opacity: 1; stroke-width: 1px;"/></g></g><g class="zerolinelayer"><path class="yzl zl crisp" transform="translate(0,420)" d="M80,0h426" style="stroke: rgb(40, 52, 66); stroke-opacity: 1; stroke-width: 2px;"/></g><path class="xlines-below"/><path class="ylines-below"/><g class="overlines-below"/><g class="xaxislayer-below"/><g class="yaxislayer-below"/><g class="overaxes-below"/><g class="plot" transform="translate(80,100)" clip-path="url(#clip64fd1cxyplot)"><g class="scatterlayer mlayer"><g class="trace scatter trace7d6c8c" style="stroke-miterlimit: 2;"><g class="fills"><g><path class="js-fill" d="M426,320L0,320L0,319.95L101.73,319.23L104.91,319.19L127.16,318.25L130.34,318.05L143.06,316.97L146.24,316.28L155.78,314.27L158.96,313.08L168.49,310.43L171.67,307.76L178.03,305L181.21,304.5L193.93,302.17L197.1,300.97L219.36,296.27L222.54,296.08L235.25,294.84L238.43,293.15L241.61,292.14L244.79,288.9L251.15,287.8L254.33,287.43L267.04,285.32L270.22,284.47L276.58,282.86L279.76,282.36L282.94,281.24L286.12,275.61L289.3,275.26L292.48,265.48L302.01,260.37L305.19,256.65L308.37,255.06L311.55,252.05L317.91,243.5L321.09,241.89L324.27,237.36L327.45,231.17L333.81,220.85L336.99,217.55L346.52,204.82L349.7,200.85L356.06,193.72L359.24,188.16L362.42,182.3L365.6,178.12L368.78,174.49L371.96,167.97L381.49,154.56L384.67,145.86L391.03,133.99L394.21,126.82L397.39,117.02L400.57,110.69L406.93,102.3L410.1,96.86L413.28,92.66L416.46,90.33L426,81.32" style="fill: rgb(186, 176, 172); fill-opacity: 0.5; stroke-width: 0;"/></g><g><path class="js-fill" d="M0,319.95L101.73,319.23L104.91,319.05L120.81,318.87L123.99,318.52L133.52,317.81L136.7,317.79L158.96,313.08L162.13,312.21L168.49,309.95L171.67,307.24L174.85,305.37L178.03,304.39L193.93,302.17L197.1,300.23L200.28,300.23L203.46,299.02L206.64,299.17L209.82,297.39L213,296.98L216.18,295.78L219.36,295.41L222.54,296.08L228.9,294.49L232.07,295.08L241.61,291.15L244.79,287.71L251.15,286.29L254.33,285.85L267.04,283.29L270.22,282.28L276.58,280.32L279.76,279.79L282.94,278.56L286.12,272.92L289.3,272.57L292.48,262.58L302.01,256.82L305.19,252.53L308.37,250.58L311.55,247.15L317.91,238.38L321.09,235.9L324.27,231.03L327.45,224.61L333.81,213.75L336.99,210.29L349.7,191.51L352.88,187.37L356.06,182.66L359.24,176.18L362.42,169.12L365.6,164.39L368.78,159.9L371.96,152.03L381.49,133.7L384.67,122.98L387.85,114.64L391.03,103.04L394.21,92.08L397.39,76.57L400.57,66.62L403.75,60.67L406.93,53.13L410.1,43.21L413.28,35.81L416.46,31.08L426,16L426,81.32L416.46,90.33L413.28,92.66L410.1,96.86L406.93,102.3L400.57,110.69L397.39,117.02L394.21,126.82L391.03,133.99L384.67,145.86L381.49,154.56L371.96,167.97L368.78,174.49L365.6,178.12L362.42,182.3L359.24,188.16L356.06,193.72L349.7,200.85L346.52,204.82L336.99,217.55L333.81,220.85L327.45,231.17L324.27,237.36L321.09,241.89L317.91,243.5L311.55,252.05L308.37,255.06L305.19,256.65L302.01,260.37L292.48,265.48L289.3,275.26L286.12,275.61L282.94,281.24L279.76,282.36L276.58,282.86L270.22,284.47L267.04,285.32L254.33,287.43L251.15,287.8L244.79,288.9L241.61,292.14L238.43,293.15L235.25,294.84L222.54,296.08L219.36,296.27L197.1,300.97L193.93,302.17L181.21,304.5L178.03,305L171.67,307.76L168.49,310.43L158.96,313.08L155.78,314.27L146.24,316.28L143.06,316.97L130.34,318.05L127.16,318.25L104.91,319.19L101.73,319.23L0,319.95Z" style="fill: rgb(157, 117, 93); fill-opacity: 0.5; stroke-width: 0;"/></g></g><g class="errorbars"/><g class="lines"><path class="js-line" d="M0,319.95L101.73,319.23L104.91,319.19L127.16,318.25L130.34,318.05L143.06,316.97L146.24,316.28L155.78,314.27L158.96,313.08L168.49,310.43L171.67,307.76L178.03,305L181.21,304.5L193.93,302.17L197.1,300.97L219.36,296.27L222.54,296.08L235.25,294.84L238.43,293.15L241.61,292.14L244.79,288.9L251.15,287.8L254.33,287.43L267.04,285.32L270.22,284.47L276.58,282.86L279.76,282.36L282.94,281.24L286.12,275.61L289.3,275.26L292.48,265.48L302.01,260.37L305.19,256.65L308.37,255.06L311.55,252.05L317.91,243.5L321.09,241.89L324.27,237.36L327.45,231.17L333.81,220.85L336.99,217.55L346.52,204.82L349.7,200.85L356.06,193.72L359.24,188.16L362.42,182.3L365.6,178.12L368.78,174.49L371.96,167.97L381.49,154.56L384.67,145.86L391.03,133.99L394.21,126.82L397.39,117.02L400.57,110.69L406.93,102.3L410.1,96.86L413.28,92.66L416.46,90.33L426,81.32" style="vector-effect: none; fill: none; stroke: rgb(186, 176, 172); stroke-opacity: 1; stroke-width: 2px; opacity: 1;"/></g><g class="points"/><g class="text"/></g><g class="trace scatter tracebdbe19" style="stroke-miterlimit: 2;"><g class="fills"/><g class="errorbars"/><g class="lines"><path class="js-line" d="M0,319.95L101.73,319.23L104.91,319.05L120.81,318.87L123.99,318.52L133.52,317.81L136.7,317.79L158.96,313.08L162.13,312.21L168.49,309.95L171.67,307.24L174.85,305.37L178.03,304.39L193.93,302.17L197.1,300.23L200.28,300.23L203.46,299.02L206.64,299.17L209.82,297.39L213,296.98L216.18,295.78L219.36,295.41L222.54,296.08L228.9,294.49L232.07,295.08L241.61,291.15L244.79,287.71L251.15,286.29L254.33,285.85L267.04,283.29L270.22,282.28L276.58,280.32L279.76,279.79L282.94,278.56L286.12,272.92L289.3,272.57L292.48,262.58L302.01,256.82L305.19,252.53L308.37,250.58L311.55,247.15L317.91,238.38L321.09,235.9L324.27,231.03L327.45,224.61L333.81,213.75L336.99,210.29L349.7,191.51L352.88,187.37L356.06,182.66L359.24,176.18L362.42,169.12L365.6,164.39L368.78,159.9L371.96,152.03L381.49,133.7L384.67,122.98L387.85,114.64L391.03,103.04L394.21,92.08L397.39,76.57L400.57,66.62L403.75,60.67L406.93,53.13L410.1,43.21L413.28,35.81L416.46,31.08L426,16" style="vector-effect: none; fill: none; stroke: rgb(157, 117, 93); stroke-opacity: 1; stroke-width: 2px; opacity: 1;"/></g><g class="points"/><g class="text"/></g></g></g><g class="overplot"/><path class="xlines-above crisp" d="M0,0" style="fill: none;"/><path class="ylines-above crisp" d="M0,0" style="fill: none;"/><g class="overlines-above"/><g class="xaxislayer-above"><g class="xtick"><text text-anchor="middle" x="0" y="433" transform="translate(123.55,0)" style="font-family: Raleway; font-size: 12px; fill: rgb(242, 245, 250); fill-opacity: 1; white-space: pre; opacity: 1;">2014</text></g><g class="xtick"><text text-anchor="middle" x="0" y="433" style="font-family: Raleway; font-size: 12px; fill: rgb(242, 245, 250); fill-opacity: 1; white-space: pre; opacity: 1;" transform="translate(200.91,0)">2016</text></g><g class="xtick"><text text-anchor="middle" x="0" y="433" style="font-family: Raleway; font-size: 12px; fill: rgb(242, 245, 250); fill-opacity: 1; white-space: pre; opacity: 1;" transform="translate(278.38,0)">2018</text></g><g class="xtick"><text text-anchor="middle" x="0" y="433" style="font-family: Raleway; font-size: 12px; fill: rgb(242, 245, 250); fill-opacity: 1; white-space: pre; opacity: 1;" transform="translate(355.73,0)">2020</text></g><g class="xtick"><text text-anchor="middle" x="0" y="433" style="font-family: Raleway; font-size: 12px; fill: rgb(242, 245, 250); fill-opacity: 1; white-space: pre; opacity: 1;" transform="translate(433.2,0)">2022</text></g></g><g class="yaxislayer-above"><g class="ytick"><text text-anchor="end" x="79" y="4.199999999999999" transform="translate(0,420)" style="font-family: Raleway; font-size: 12px; fill: rgb(242, 245, 250); fill-opacity: 1; white-space: pre; opacity: 1;">0</text></g><g class="ytick"><text text-anchor="end" x="79" y="4.199999999999999" style="font-family: Raleway; font-size: 12px; fill: rgb(242, 245, 250); fill-opacity: 1; white-space: pre; opacity: 1;" transform="translate(0,363.08)">10k</text></g><g class="ytick"><text text-anchor="end" x="79" y="4.199999999999999" style="font-family: Raleway; font-size: 12px; fill: rgb(242, 245, 250); fill-opacity: 1; white-space: pre; opacity: 1;" transform="translate(0,306.16999999999996)">20k</text></g><g class="ytick"><text text-anchor="end" x="79" y="4.199999999999999" style="font-family: Raleway; font-size: 12px; fill: rgb(242, 245, 250); fill-opacity: 1; white-space: pre; opacity: 1;" transform="translate(0,249.25)">30k</text></g><g class="ytick"><text text-anchor="end" x="79" y="4.199999999999999" style="font-family: Raleway; font-size: 12px; fill: rgb(242, 245, 250); fill-opacity: 1; white-space: pre; opacity: 1;" transform="translate(0,192.32999999999998)">40k</text></g><g class="ytick"><text text-anchor="end" x="79" y="4.199999999999999" style="font-family: Raleway; font-size: 12px; fill: rgb(242, 245, 250); fill-opacity: 1; white-space: pre; opacity: 1;" transform="translate(0,135.41)">50k</text></g></g><g class="overaxes-above"/></g></g><g class="polarlayer"/><g class="smithlayer"/><g class="ternarylayer"/><g class="geolayer"/><g class="funnelarealayer"/><g class="pielayer"/><g class="iciclelayer"/><g class="treemaplayer"/><g class="sunburstlayer"/><g class="glimages"/><defs id="topdefs-64fd1c"><g class="clips"/><clipPath id="legend64fd1c"><rect width="173" height="67" x="0" y="0"/></clipPath></defs><g class="layer-above"><g class="imagelayer"/><g class="shapelayer"/></g><g class="infolayer"><g class="legend" pointer-events="all" transform="translate(514.52,100)"><rect class="bg" shape-rendering="crispEdges" style="stroke: rgb(68, 68, 68); stroke-opacity: 1; fill: rgb(17, 17, 17); fill-opacity: 1; stroke-width: 0px;" width="173" height="67" x="0" y="0"/><g class="scrollbox" transform="" clip-path="url(#legend64fd1c)"><text class="legendtitletext" text-anchor="start" x="2" y="18.2" style="font-family: Raleway; font-size: 14px; fill: rgb(242, 245, 250); fill-opacity: 1; white-space: pre;">Possède une prise combo</text><g class="groups" transform=""><g class="traces" transform="translate(0,32.7)" style="opacity: 1;"><text class="legendtext" text-anchor="start" x="40" y="4.680000000000001" style="font-family: Raleway; font-size: 12px; fill: rgb(242, 245, 250); fill-opacity: 1; white-space: pre;">Non</text><g class="layers"><g class="legendfill"><path class="js-fill" d="M5,-2h30v6h-30z" style="stroke-width: 0; fill: rgb(186, 176, 172); fill-opacity: 0.5;"/></g><g class="legendlines"><path class="js-line" d="M5,-2h30" style="fill: none; stroke: rgb(186, 176, 172); stroke-opacity: 1; stroke-width: 2px;"/></g><g class="legendsymbols"><g class="legendpoints"/></g></g><rect class="legendtoggle" x="0" y="-9.5" width="63.3125" height="19" style="fill: rgb(0, 0, 0); fill-opacity: 0;"/></g></g><g class="groups" transform=""><g class="traces" transform="translate(0,51.7)" style="opacity: 1;"><text class="legendtext" text-anchor="start" x="40" y="4.680000000000001" style="font-family: Raleway; font-size: 12px; fill: rgb(242, 245, 250); fill-opacity: 1; white-space: pre;">Oui</text><g class="layers"><g class="legendfill"><path class="js-fill" d="M5,-2h30v6h-30z" style="stroke-width: 0; fill: rgb(157, 117, 93); fill-opacity: 0.5;"/></g><g class="legendlines"><path class="js-line" d="M5,-2h30" style="fill: none; stroke: rgb(157, 117, 93); stroke-opacity: 1; stroke-width: 2px;"/></g><g class="legendsymbols"><g class="legendpoints"/></g></g><rect class="legendtoggle" x="0" y="-9.5" width="63.3125" height="19" style="fill: rgb(0, 0, 0); fill-opacity: 0;"/></g></g></g><rect class="scrollbar" rx="20" ry="3" width="0" height="0" x="0" y="0" style="fill: rgb(128, 139, 164); fill-opacity: 1;"/></g><g class="g-gtitle"><text class="gtitle" x="35" y="50" text-anchor="start" dy="0em" style="font-family: Raleway; font-size: 17px; fill: rgb(242, 245, 250); opacity: 1; font-weight: normal; white-space: pre;">Nombre cumulé de points en fonction s'il possèdent une prise combo</text></g><g class="g-xtitle"><text class="xtitle" x="293" y="460.3" text-anchor="middle" style="font-family: Raleway; font-size: 14px; fill: rgb(242, 245, 250); opacity: 1; font-weight: normal; white-space: pre;">Date de mise en service</text></g><g class="g-ytitle"><text class="ytitle" transform="rotate(-90,34.434375,260)" x="34.434375" y="260" text-anchor="middle" style="font-family: Raleway; font-size: 14px; fill: rgb(242, 245, 250); opacity: 1; font-weight: normal; white-space: pre;">Nombre de points de charge</text></g></g></svg>