<svg class="main-svg" xmlns="http://www.w3.org/2000/svg" xmlns:xlink="http://www.w3.org/1999/xlink" width="700" height="500" style="" viewBox="0 0 700 500"><rect x="0" y="0" width="700" height="500" style="fill: rgb(17, 17, 17); fill-opacity: 1;"/><defs id="defs-ae3b8d"><g class="clips"><clipPath id="clipae3b8dxyplot" class="plotclip"><rect width="465" height="320"/></clipPath><clipPath class="axesclip" id="clipae3b8dx"><rect x="80" y="0" width="465" height="500"/></clipPath><clipPath class="axesclip" id="clipae3b8dy"><rect x="0" y="100" width="700" height="320"/></clipPath><clipPath class="axesclip" id="clipae3b8dxy"><rect x="80" y="100" width="465" height="320"/></clipPath></g><g class="gradients"/><g class="patterns"/></defs><g class="bglayer"/><g class="layer-below"><g class="imagelayer"/><g class="shapelayer"/></g><g class="cartesianlayer"><g class="subplot xy"><g class="layer-subplot"><g class="shapelayer"/><g class="imagelayer"/></g><g class="minor-gridlayer"><g class="x"/><g class="y"/></g><g class="gridlayer"><g class="x"><path class="xgrid crisp" transform="translate(127.53999999999999,0)" d="M0,100v320" style="stroke: rgb(40, 52, 66); stroke-opacity: 1; stroke-width: 1px;"/><path class="xgrid crisp" transform="translate(211.98,0)" d="M0,100v320" style="stroke: rgb(40, 52, 66); stroke-opacity: 1; stroke-width: 1px;"/><path class="xgrid crisp" transform="translate(296.53999999999996,0)" d="M0,100v320" style="stroke: rgb(40, 52, 66); stroke-opacity: 1; stroke-width: 1px;"/><path class="xgrid crisp" transform="translate(380.98,0)" d="M0,100v320" style="stroke: rgb(40, 52, 66); stroke-opacity: 1; stroke-width: 1px;"/><path class="xgrid crisp" transform="translate(465.53,0)" d="M0,100v320" style="stroke: rgb(40, 52, 66); stroke-opacity: 1; stroke-width: 1px;"/></g><g class="y"><path class="ygrid crisp" transform="translate(0,363.02)" d="M80,0h465" style="stroke: rgb(40, 52, 66); stroke-opacity: 1; stroke-width: 1px;"/><path class="ygrid crisp" transform="translate(0,306.03999999999996)" d="M80,0h465" style="stroke: rgb(40, 52, 66); stroke-opacity: 1; stroke-width: 1px;"/><path class="ygrid crisp" transform="translate(0,249.06)" d="M80,0h465" style="stroke: rgb(40, 52, 66); stroke-opacity: 1; stroke-width: 1px;"/><path class="ygrid crisp" transform="translate(0,192.07999999999998)" d="M80,0h465" style="stroke: rgb(40, 52, 66); stroke-opacity: 1; stroke-width: 1px;"/><path class="ygrid crisp" transform="translate(0,135.11)" d="M80,0h465" style="stroke: rgb(40, 52, 66); stroke-opacity: 1; stroke-width: 1px;"/></g></g><g class="zerolinelayer"><path class="yzl zl crisp" transform="translate(0,420)" d="M80,0h465" style="stroke: rgb(40, 52, 66); stroke-opacity: 1; stroke-width: 2px;"/></g><path class="xlines-below"/><path class="ylines-below"/><g class="overlines-below"/><g class="xaxislayer-below"/><g class="yaxislayer-below"/><g class="overaxes-below"/><g class="plot" transform="translate(80,100)" clip-path="url(#clipae3b8dxyplot)"><g class="scatterlayer mlayer"><g class="trace scatter trace3f0474" style="stroke-miterlimit: 2;"><g class="fills"><g><path class="js-fill" d="M465,320L0,320L0,320L465,319.94" style="fill: rgb(186, 176, 172); fill-opacity: 0.5; stroke-width: 0;"/></g><g><path class="js-fill" d="M0,320L340.07,319.25L343.54,319.24L454.59,317.12L458.06,317.09L465,317.08L465,319.94L0,320Z" style="fill: rgb(157, 117, 93); fill-opacity: 0.5; stroke-width: 0;"/></g></g><g class="errorbars"/><g class="lines"><path class="js-line" d="M0,320L465,319.94" style="vector-effect: none; fill: none; stroke: rgb(186, 176, 172); stroke-opacity: 1; stroke-width: 2px; opacity: 1;"/></g><g class="points"/><g class="text"/></g><g class="trace scatter trace05cc09" style="stroke-miterlimit: 2;"><g class="fills"><g><path class="js-fill" d="M0,320L232.5,319.28L235.97,319.2L263.73,318.86L267.2,318.8L322.72,318.05L326.19,318.05L343.54,315.81L347.01,314.78L357.43,313.58L360.9,311.58L364.37,309.18L367.84,308.03L371.31,305.59L374.78,304.11L381.72,300.5L385.19,299.62L399.07,297.68L402.54,297.47L409.48,296.26L412.95,295.94L426.83,294.41L430.3,293.57L444.18,291.55L447.65,290.96L465,290.18L465,317.08L458.06,317.09L454.59,317.12L343.54,319.24L340.07,319.25L0,320Z" style="fill: rgb(255, 157, 166); fill-opacity: 0.5; stroke-width: 0;"/></g></g><g class="errorbars"/><g class="lines"><path class="js-line" d="M0,320L340.07,319.25L343.54,319.24L454.59,317.12L458.06,317.09L465,317.08" style="vector-effect: none; fill: none; stroke: rgb(157, 117, 93); stroke-opacity: 1; stroke-width: 2px; opacity: 1;"/></g><g class="points"/><g class="text"/></g><g class="trace scatter tracefd4fb2" style="stroke-miterlimit: 2;"><g class="fills"><g><path class="js-fill" d="M0,319.95L114.51,319.23L121.46,319.17L135.34,318.56L138.81,318.28L156.16,317.03L159.63,316.33L170.04,314.33L173.51,313.14L183.92,310.48L187.39,307.85L194.33,305.15L197.8,304.64L211.68,302.37L215.15,301.16L239.44,296.54L242.91,296.36L256.79,295.19L260.26,293.51L263.73,292.56L267.2,289.37L274.14,288.28L277.61,287.92L291.49,285.92L294.96,285.1L301.9,283.48L305.37,282.99L308.84,281.9L312.31,276.29L315.78,275.95L319.25,267.22L326.19,264.62L329.66,262.39L333.13,258.88L336.6,257.32L340.07,254.33L343.54,249.85L347.01,245.87L350.49,243.46L353.96,239.05L357.43,232.9L364.37,222.85L367.84,219.5L374.78,211.07L378.25,206.9L388.66,196.15L392.13,190.57L395.6,184.7L399.07,180.7L402.54,177.14L406.01,170.73L416.42,157.3L419.89,148.82L426.83,137.83L430.3,131.23L433.77,121.55L437.24,115.67L444.18,107.97L447.65,103.18L451.12,99.56L454.59,97.56L458.06,94.64L461.53,92.85L465,89.37L465,290.18L447.65,290.96L444.18,291.55L430.3,293.57L426.83,294.41L412.95,295.94L409.48,296.26L402.54,297.47L399.07,297.68L385.19,299.62L381.72,300.5L374.78,304.11L371.31,305.59L367.84,308.03L364.37,309.18L360.9,311.58L357.43,313.58L347.01,314.78L343.54,315.81L326.19,318.05L322.72,318.05L267.2,318.8L263.73,318.86L235.97,319.2L232.5,319.28L0,320Z" style="fill: rgb(178, 121, 162); fill-opacity: 0.5; stroke-width: 0;"/></g></g><g class="errorbars"/><g class="lines"><path class="js-line" d="M0,320L232.5,319.28L235.97,319.2L263.73,318.86L267.2,318.8L322.72,318.05L326.19,318.05L343.54,315.81L347.01,314.78L357.43,313.58L360.9,311.58L364.37,309.18L367.84,308.03L371.31,305.59L374.78,304.11L381.72,300.5L385.19,299.62L399.07,297.68L402.54,297.47L409.48,296.26L412.95,295.94L426.83,294.41L430.3,293.57L444.18,291.55L447.65,290.96L465,290.18" style="vector-effect: none; fill: none; stroke: rgb(255, 157, 166); stroke-opacity: 1; stroke-width: 2px; opacity: 1;"/></g><g class="points"/><g class="text"/></g><g class="trace scatter trace3a28b3" style="stroke-miterlimit: 2;"><g class="fills"><g><path class="js-fill" d="M0,319.95L111.04,319.21L114.51,319.16L135.34,318.49L138.81,318.21L156.16,316.91L159.63,316.21L170.04,314.2L173.51,313.01L180.45,311.25L183.92,310.05L190.86,305.46L194.33,304.48L211.68,301.58L215.15,300.38L239.44,295.56L242.91,295.38L256.79,294.11L260.26,292.4L263.73,291.34L267.2,288.01L274.14,286.83L277.61,286.44L291.49,284.19L294.96,283.31L301.9,281.58L305.37,281.06L308.84,279.9L312.31,274.27L315.78,273.92L319.25,263.98L329.66,258.5L333.13,254.55L336.6,252.87L340.07,249.76L347.01,241.1L350.49,238.66L353.96,233.94L357.43,227.53L364.37,216.83L367.84,213.4L378.25,199.79L381.72,195.53L388.66,187.67L392.13,181.74L395.6,175.22L399.07,170.77L402.54,166.71L406.01,159.78L416.42,144.52L419.89,135.41L426.83,122.68L430.3,115.21L433.77,104.93L437.24,98.28L444.18,89.52L447.65,83.94L451.12,79.7L454.59,77.14L458.06,73.57L461.53,71.33L465,67.22L465,89.37L461.53,92.85L458.06,94.64L454.59,97.56L451.12,99.56L447.65,103.18L444.18,107.97L437.24,115.67L433.77,121.55L430.3,131.23L426.83,137.83L419.89,148.82L416.42,157.3L406.01,170.73L402.54,177.14L399.07,180.7L395.6,184.7L392.13,190.57L388.66,196.15L378.25,206.9L374.78,211.07L367.84,219.5L364.37,222.85L357.43,232.9L353.96,239.05L350.49,243.46L347.01,245.87L343.54,249.85L340.07,254.33L336.6,257.32L333.13,258.88L329.66,262.39L326.19,264.62L319.25,267.22L315.78,275.95L312.31,276.29L308.84,281.9L305.37,282.99L301.9,283.48L294.96,285.1L291.49,285.92L277.61,287.92L274.14,288.28L267.2,289.37L263.73,292.56L260.26,293.51L256.79,295.19L242.91,296.36L239.44,296.54L215.15,301.16L211.68,302.37L197.8,304.64L194.33,305.15L187.39,307.85L183.92,310.48L173.51,313.14L170.04,314.33L159.63,316.33L156.16,317.03L138.81,318.28L135.34,318.56L121.46,319.17L114.51,319.23L0,319.95Z" style="fill: rgb(238, 202, 59); fill-opacity: 0.5; stroke-width: 0;"/></g></g><g class="errorbars"/><g class="lines"><path class="js-line" d="M0,319.95L114.51,319.23L121.46,319.17L135.34,318.56L138.81,318.28L156.16,317.03L159.63,316.33L170.04,314.33L173.51,313.14L183.92,310.48L187.39,307.85L194.33,305.15L197.8,304.64L211.68,302.37L215.15,301.16L239.44,296.54L242.91,296.36L256.79,295.19L260.26,293.51L263.73,292.56L267.2,289.37L274.14,288.28L277.61,287.92L291.49,285.92L294.96,285.1L301.9,283.48L305.37,282.99L308.84,281.9L312.31,276.29L315.78,275.95L319.25,267.22L326.19,264.62L329.66,262.39L333.13,258.88L336.6,257.32L340.07,254.33L343.54,249.85L347.01,245.87L350.49,243.46L353.96,239.05L357.43,232.9L364.37,222.85L367.84,219.5L374.78,211.07L378.25,206.9L388.66,196.15L392.13,190.57L395.6,184.7L399.07,180.7L402.54,177.14L406.01,170.73L416.42,157.3L419.89,148.82L426.83,137.83L430.3,131.23L433.77,121.55L437.24,115.67L444.18,107.97L447.65,103.18L451.12,99.56L454.59,97.56L458.06,94.64L461.53,92.85L465,89.37" style="vector-effect: none; fill: none; stroke: rgb(178, 121, 162); stroke-opacity: 1; stroke-width: 2px; opacity: 1;"/></g><g class="points"/><g class="text"/></g><g class="trace scatter trace8cc612" style="stroke-miterlimit: 2;"><g class="fills"><g><path class="js-fill" d="M0,319.95L107.57,319.56L111.04,319.11L138.81,318.1L142.28,317.91L156.16,316.8L159.63,316.1L170.04,314.09L173.51,312.9L180.45,311.14L183.92,309.94L190.86,305.35L194.33,304.38L211.68,301.47L215.15,300.21L239.44,295.4L242.91,295.21L256.79,293.94L260.26,292.22L263.73,291.16L267.2,287.83L274.14,286.64L277.61,286.25L291.49,283.98L294.96,283.09L301.9,281.36L305.37,280.84L308.84,279.69L312.31,274.05L315.78,273.7L319.25,263.76L329.66,258.26L333.13,254.13L336.6,252.45L340.07,249.31L347.01,240.64L350.49,238.2L353.96,233.41L357.43,226.99L364.37,216.24L367.84,212.78L378.25,198.95L381.72,194.59L388.66,186.36L392.13,180.02L395.6,173.13L399.07,168.46L402.54,164.14L406.01,156.63L416.42,139.69L419.89,129.44L426.83,113.91L430.3,104.9L433.77,91L437.24,82.63L444.18,71.58L447.65,64.28L451.12,58.1L454.59,54.55L465,42.12L465,67.22L461.53,71.33L458.06,73.57L454.59,77.14L451.12,79.7L447.65,83.94L444.18,89.52L437.24,98.28L433.77,104.93L430.3,115.21L426.83,122.68L419.89,135.41L416.42,144.52L406.01,159.78L402.54,166.71L399.07,170.77L395.6,175.22L392.13,181.74L388.66,187.67L381.72,195.53L378.25,199.79L367.84,213.4L364.37,216.83L357.43,227.53L353.96,233.94L350.49,238.66L347.01,241.1L340.07,249.76L336.6,252.87L333.13,254.55L329.66,258.5L319.25,263.98L315.78,273.92L312.31,274.27L308.84,279.9L305.37,281.06L301.9,281.58L294.96,283.31L291.49,284.19L277.61,286.44L274.14,286.83L267.2,288.01L263.73,291.34L260.26,292.4L256.79,294.11L242.91,295.38L239.44,295.56L215.15,300.38L211.68,301.58L194.33,304.48L190.86,305.46L183.92,310.05L180.45,311.25L173.51,313.01L170.04,314.2L159.63,316.21L156.16,316.91L138.81,318.21L135.34,318.49L114.51,319.16L111.04,319.21L0,319.95Z" style="fill: rgb(84, 162, 75); fill-opacity: 0.5; stroke-width: 0;"/></g></g><g class="errorbars"/><g class="lines"><path class="js-line" d="M0,319.95L111.04,319.21L114.51,319.16L135.34,318.49L138.81,318.21L156.16,316.91L159.63,316.21L170.04,314.2L173.51,313.01L180.45,311.25L183.92,310.05L190.86,305.46L194.33,304.48L211.68,301.58L215.15,300.38L239.44,295.56L242.91,295.38L256.79,294.11L260.26,292.4L263.73,291.34L267.2,288.01L274.14,286.83L277.61,286.44L291.49,284.19L294.96,283.31L301.9,281.58L305.37,281.06L308.84,279.9L312.31,274.27L315.78,273.92L319.25,263.98L329.66,258.5L333.13,254.55L336.6,252.87L340.07,249.76L347.01,241.1L350.49,238.66L353.96,233.94L357.43,227.53L364.37,216.83L367.84,213.4L378.25,199.79L381.72,195.53L388.66,187.67L392.13,181.74L395.6,175.22L399.07,170.77L402.54,166.71L406.01,159.78L416.42,144.52L419.89,135.41L426.83,122.68L430.3,115.21L433.77,104.93L437.24,98.28L444.18,89.52L447.65,83.94L451.12,79.7L454.59,77.14L458.06,73.57L461.53,71.33L465,67.22" style="vector-effect: none; fill: none; stroke: rgb(238, 202, 59); stroke-opacity: 1; stroke-width: 2px; opacity: 1;"/></g><g class="points"/><g class="text"/></g><g class="trace scatter trace86ad69" style="stroke-miterlimit: 2;"><g class="fills"><g><path class="js-fill" d="M0,319.95L107.57,319.56L111.04,319.11L138.81,318.1L142.28,317.91L156.16,316.8L159.63,316.1L170.04,314.09L173.51,312.9L180.45,311.14L183.92,309.94L190.86,305.35L194.33,304.38L211.68,301.46L215.15,300.21L239.44,295.38L242.91,295.2L256.79,293.91L260.26,292.19L263.73,291.12L267.2,287.68L274.14,286.26L277.61,285.82L291.49,283.27L294.96,282.25L301.9,280.29L305.37,279.76L308.84,278.52L312.31,272.88L315.78,272.53L319.25,262.53L329.66,256.76L333.13,252.47L336.6,250.51L340.07,247.08L347.01,238.3L350.49,235.82L353.96,230.95L357.43,224.51L364.37,213.64L367.84,210.18L378.25,196.1L381.72,191.38L388.66,182.56L392.13,176.07L395.6,169.01L399.07,164.27L402.54,159.77L406.01,151.89L416.42,133.58L419.89,122.86L423.36,114.52L426.83,102.98L430.3,92.02L433.77,76.5L437.24,66.57L440.71,60.63L444.18,53.08L447.65,43.18L451.12,35.78L454.59,31.05L465,16L465,42.12L454.59,54.55L451.12,58.1L447.65,64.28L444.18,71.58L437.24,82.63L433.77,91L430.3,104.9L426.83,113.91L419.89,129.44L416.42,139.69L406.01,156.63L402.54,164.14L399.07,168.46L395.6,173.13L392.13,180.02L388.66,186.36L381.72,194.59L378.25,198.95L367.84,212.78L364.37,216.24L357.43,226.99L353.96,233.41L350.49,238.2L347.01,240.64L340.07,249.31L336.6,252.45L333.13,254.13L329.66,258.26L319.25,263.76L315.78,273.7L312.31,274.05L308.84,279.69L305.37,280.84L301.9,281.36L294.96,283.09L291.49,283.98L277.61,286.25L274.14,286.64L267.2,287.83L263.73,291.16L260.26,292.22L256.79,293.94L242.91,295.21L239.44,295.4L215.15,300.21L211.68,301.47L194.33,304.38L190.86,305.35L183.92,309.94L180.45,311.14L173.51,312.9L170.04,314.09L159.63,316.1L156.16,316.8L142.28,317.91L138.81,318.1L111.04,319.11L107.57,319.56L0,319.95Z" style="fill: rgb(114, 183, 178); fill-opacity: 0.5; stroke-width: 0;"/></g></g><g class="errorbars"/><g class="lines"><path class="js-line" d="M0,319.95L107.57,319.56L111.04,319.11L138.81,318.1L142.28,317.91L156.16,316.8L159.63,316.1L170.04,314.09L173.51,312.9L180.45,311.14L183.92,309.94L190.86,305.35L194.33,304.38L211.68,301.47L215.15,300.21L239.44,295.4L242.91,295.21L256.79,293.94L260.26,292.22L263.73,291.16L267.2,287.83L274.14,286.64L277.61,286.25L291.49,283.98L294.96,283.09L301.9,281.36L305.37,280.84L308.84,279.69L312.31,274.05L315.78,273.7L319.25,263.76L329.66,258.26L333.13,254.13L336.6,252.45L340.07,249.31L347.01,240.64L350.49,238.2L353.96,233.41L357.43,226.99L364.37,216.24L367.84,212.78L378.25,198.95L381.72,194.59L388.66,186.36L392.13,180.02L395.6,173.13L399.07,168.46L402.54,164.14L406.01,156.63L416.42,139.69L419.89,129.44L426.83,113.91L430.3,104.9L433.77,91L437.24,82.63L444.18,71.58L447.65,64.28L451.12,58.1L454.59,54.55L465,42.12" style="vector-effect: none; fill: none; stroke: rgb(84, 162, 75); stroke-opacity: 1; stroke-width: 2px; opacity: 1;"/></g><g class="points"/><g class="text"/></g><g class="trace scatter trace79ab7f" style="stroke-miterlimit: 2;"><g class="fills"/><g class="errorbars"/><g class="lines"><path class="js-line" d="M0,319.95L107.57,319.56L111.04,319.11L138.81,318.1L142.28,317.91L156.16,316.8L159.63,316.1L170.04,314.09L173.51,312.9L180.45,311.14L183.92,309.94L190.86,305.35L194.33,304.38L211.68,301.46L215.15,300.21L239.44,295.38L242.91,295.2L256.79,293.91L260.26,292.19L263.73,291.12L267.2,287.68L274.14,286.26L277.61,285.82L291.49,283.27L294.96,282.25L301.9,280.29L305.37,279.76L308.84,278.52L312.31,272.88L315.78,272.53L319.25,262.53L329.66,256.76L333.13,252.47L336.6,250.51L340.07,247.08L347.01,238.3L350.49,235.82L353.96,230.95L357.43,224.51L364.37,213.64L367.84,210.18L378.25,196.1L381.72,191.38L388.66,182.56L392.13,176.07L395.6,169.01L399.07,164.27L402.54,159.77L406.01,151.89L416.42,133.58L419.89,122.86L423.36,114.52L426.83,102.98L430.3,92.02L433.77,76.5L437.24,66.57L440.71,60.63L444.18,53.08L447.65,43.18L451.12,35.78L454.59,31.05L465,16" style="vector-effect: none; fill: none; stroke: rgb(114, 183, 178); stroke-opacity: 1; stroke-width: 2px; opacity: 1;"/></g><g class="points"/><g class="text"/></g></g></g><g class="overplot"/><path class="xlines-above crisp" d="M0,0" style="fill: none;"/><path class="ylines-above crisp" d="M0,0" style="fill: none;"/><g class="overlines-above"/><g class="xaxislayer-above"><g class="xtick"><text text-anchor="middle" x="0" y="433" transform="translate(127.53999999999999,0)" style="font-family: Raleway; font-size: 12px; fill: rgb(242, 245, 250); fill-opacity: 1; white-space: pre; opacity: 1;">2014</text></g><g class="xtick"><text text-anchor="middle" x="0" y="433" style="font-family: Raleway; font-size: 12px; fill: rgb(242, 245, 250); fill-opacity: 1; white-space: pre; opacity: 1;" transform="translate(211.98,0)">2016</text></g><g class="xtick"><text text-anchor="middle" x="0" y="433" style="font-family: Raleway; font-size: 12px; fill: rgb(242, 245, 250); fill-opacity: 1; white-space: pre; opacity: 1;" transform="translate(296.53999999999996,0)">2018</text></g><g class="xtick"><text text-anchor="middle" x="0" y="433" style="font-family: Raleway; font-size: 12px; fill: rgb(242, 245, 250); fill-opacity: 1; white-space: pre; opacity: 1;" transform="translate(380.98,0)">2020</text></g><g class="xtick"><text text-anchor="middle" x="0" y="433" style="font-family: Raleway; font-size: 12px; fill: rgb(242, 245, 250); fill-opacity: 1; white-space: pre; opacity: 1;" transform="translate(465.53,0)">2022</text></g></g><g class="yaxislayer-above"><g class="ytick"><text text-anchor="end" x="79" y="4.199999999999999" transform="translate(0,420)" style="font-family: Raleway; font-size: 12px; fill: rgb(242, 245, 250); fill-opacity: 1; white-space: pre; opacity: 1;">0</text></g><g class="ytick"><text text-anchor="end" x="79" y="4.199999999999999" style="font-family: Raleway; font-size: 12px; fill: rgb(242, 245, 250); fill-opacity: 1; white-space: pre; opacity: 1;" transform="translate(0,363.02)">10k</text></g><g class="ytick"><text text-anchor="end" x="79" y="4.199999999999999" style="font-family: Raleway; font-size: 12px; fill: rgb(242, 245, 250); fill-opacity: 1; white-space: pre; opacity: 1;" transform="translate(0,306.03999999999996)">20k</text></g><g class="ytick"><text text-anchor="end" x="79" y="4.199999999999999" style="font-family: Raleway; font-size: 12px; fill: rgb(242, 245, 250); fill-opacity: 1; white-space: pre; opacity: 1;" transform="translate(0,249.06)">30k</text></g><g class="ytick"><text text-anchor="end" x="79" y="4.199999999999999" style="font-family: Raleway; font-size: 12px; fill: rgb(242, 245, 250); fill-opacity: 1; white-space: pre; opacity: 1;" transform="translate(0,192.07999999999998)">40k</text></g><g class="ytick"><text text-anchor="end" x="79" y="4.199999999999999" style="font-family: Raleway; font-size: 12px; fill: rgb(242, 245, 250); fill-opacity: 1; white-space: pre; opacity: 1;" transform="translate(0,135.11)">50k</text></g></g><g class="overaxes-above"/></g></g><g class="polarlayer"/><g class="smithlayer"/><g class="ternarylayer"/><g class="geolayer"/><g class="funnelarealayer"/><g class="pielayer"/><g class="iciclelayer"/><g class="treemaplayer"/><g class="sunburstlayer"/><g class="glimages"/><defs id="topdefs-ae3b8d"><g class="clips"/><clipPath id="legendae3b8d"><rect width="134" height="162" x="0" y="0"/></clipPath></defs><g class="layer-above"><g class="imagelayer"/><g class="shapelayer"/></g><g class="infolayer"><g class="legend" pointer-events="all" transform="translate(554.3,100)"><rect class="bg" shape-rendering="crispEdges" style="stroke: rgb(68, 68, 68); stroke-opacity: 1; fill: rgb(17, 17, 17); fill-opacity: 1; stroke-width: 0px;" width="134" height="162" x="0" y="0"/><g class="scrollbox" transform="" clip-path="url(#legendae3b8d)"><text class="legendtitletext" text-anchor="start" x="2" y="18.2" style="font-family: Raleway; font-size: 14px; fill: rgb(242, 245, 250); fill-opacity: 1; white-space: pre;">Puissance nominale</text><g class="groups" transform=""><g class="traces" transform="translate(0,32.7)" style="opacity: 1;"><text class="legendtext" text-anchor="start" x="40" y="4.680000000000001" style="font-family: Raleway; font-size: 12px; fill: rgb(242, 245, 250); fill-opacity: 1; white-space: pre;">1.7</text><g class="layers"><g class="legendfill"><path class="js-fill" d="M5,-2h30v6h-30z" style="stroke-width: 0; fill: rgb(186, 176, 172); fill-opacity: 0.5;"/></g><g class="legendlines"><path class="js-line" d="M5,-2h30" style="fill: none; stroke: rgb(186, 176, 172); stroke-opacity: 1; stroke-width: 2px;"/></g><g class="legendsymbols"><g class="legendpoints"/></g></g><rect class="legendtoggle" x="0" y="-9.5" width="65.125" height="19" style="fill: rgb(0, 0, 0); fill-opacity: 0;"/></g></g><g class="groups" transform=""><g class="traces" transform="translate(0,51.7)" style="opacity: 1;"><text class="legendtext" text-anchor="start" x="40" y="4.680000000000001" style="font-family: Raleway; font-size: 12px; fill: rgb(242, 245, 250); fill-opacity: 1; white-space: pre;">3.4</text><g class="layers"><g class="legendfill"><path class="js-fill" d="M5,-2h30v6h-30z" style="stroke-width: 0; fill: rgb(157, 117, 93); fill-opacity: 0.5;"/></g><g class="legendlines"><path class="js-line" d="M5,-2h30" style="fill: none; stroke: rgb(157, 117, 93); stroke-opacity: 1; stroke-width: 2px;"/></g><g class="legendsymbols"><g class="legendpoints"/></g></g><rect class="legendtoggle" x="0" y="-9.5" width="65.125" height="19" style="fill: rgb(0, 0, 0); fill-opacity: 0;"/></g></g><g class="groups" transform=""><g class="traces" transform="translate(0,70.7)" style="opacity: 1;"><text class="legendtext" text-anchor="start" x="40" y="4.680000000000001" style="font-family: Raleway; font-size: 12px; fill: rgb(242, 245, 250); fill-opacity: 1; white-space: pre;">7.5</text><g class="layers"><g class="legendfill"><path class="js-fill" d="M5,-2h30v6h-30z" style="stroke-width: 0; fill: rgb(255, 157, 166); fill-opacity: 0.5;"/></g><g class="legendlines"><path class="js-line" d="M5,-2h30" style="fill: none; stroke: rgb(255, 157, 166); stroke-opacity: 1; stroke-width: 2px;"/></g><g class="legendsymbols"><g class="legendpoints"/></g></g><rect class="legendtoggle" x="0" y="-9.5" width="65.125" height="19" style="fill: rgb(0, 0, 0); fill-opacity: 0;"/></g></g><g class="groups" transform=""><g class="traces" transform="translate(0,89.7)" style="opacity: 1;"><text class="legendtext" text-anchor="start" x="40" y="4.680000000000001" style="font-family: Raleway; font-size: 12px; fill: rgb(242, 245, 250); fill-opacity: 1; white-space: pre;">22</text><g class="layers"><g class="legendfill"><path class="js-fill" d="M5,-2h30v6h-30z" style="stroke-width: 0; fill: rgb(178, 121, 162); fill-opacity: 0.5;"/></g><g class="legendlines"><path class="js-line" d="M5,-2h30" style="fill: none; stroke: rgb(178, 121, 162); stroke-opacity: 1; stroke-width: 2px;"/></g><g class="legendsymbols"><g class="legendpoints"/></g></g><rect class="legendtoggle" x="0" y="-9.5" width="65.125" height="19" style="fill: rgb(0, 0, 0); fill-opacity: 0;"/></g></g><g class="groups" transform=""><g class="traces" transform="translate(0,108.7)" style="opacity: 1;"><text class="legendtext" text-anchor="start" x="40" y="4.680000000000001" style="font-family: Raleway; font-size: 12px; fill: rgb(242, 245, 250); fill-opacity: 1; white-space: pre;">50</text><g class="layers"><g class="legendfill"><path class="js-fill" d="M5,-2h30v6h-30z" style="stroke-width: 0; fill: rgb(238, 202, 59); fill-opacity: 0.5;"/></g><g class="legendlines"><path class="js-line" d="M5,-2h30" style="fill: none; stroke: rgb(238, 202, 59); stroke-opacity: 1; stroke-width: 2px;"/></g><g class="legendsymbols"><g class="legendpoints"/></g></g><rect class="legendtoggle" x="0" y="-9.5" width="65.125" height="19" style="fill: rgb(0, 0, 0); fill-opacity: 0;"/></g></g><g class="groups" transform=""><g class="traces" transform="translate(0,127.7)" style="opacity: 1;"><text class="legendtext" text-anchor="start" x="40" y="4.680000000000001" style="font-family: Raleway; font-size: 12px; fill: rgb(242, 245, 250); fill-opacity: 1; white-space: pre;">150</text><g class="layers"><g class="legendfill"><path class="js-fill" d="M5,-2h30v6h-30z" style="stroke-width: 0; fill: rgb(84, 162, 75); fill-opacity: 0.5;"/></g><g class="legendlines"><path class="js-line" d="M5,-2h30" style="fill: none; stroke: rgb(84, 162, 75); stroke-opacity: 1; stroke-width: 2px;"/></g><g class="legendsymbols"><g class="legendpoints"/></g></g><rect class="legendtoggle" x="0" y="-9.5" width="65.125" height="19" style="fill: rgb(0, 0, 0); fill-opacity: 0;"/></g></g><g class="groups" transform=""><g class="traces" transform="translate(0,146.7)" style="opacity: 1;"><text class="legendtext" text-anchor="start" x="40" y="4.680000000000001" style="font-family: Raleway; font-size: 12px; fill: rgb(242, 245, 250); fill-opacity: 1; white-space: pre;">>150</text><g class="layers"><g class="legendfill"><path class="js-fill" d="M5,-2h30v6h-30z" style="stroke-width: 0; fill: rgb(114, 183, 178); fill-opacity: 0.5;"/></g><g class="legendlines"><path class="js-line" d="M5,-2h30" style="fill: none; stroke: rgb(114, 183, 178); stroke-opacity: 1; stroke-width: 2px;"/></g><g class="legendsymbols"><g class="legendpoints"/></g></g><rect class="legendtoggle" x="0" y="-9.5" width="65.125" height="19" style="fill: rgb(0, 0, 0); fill-opacity: 0;"/></g></g></g><rect class="scrollbar" rx="20" ry="3" width="0" height="0" style="fill: rgb(128, 139, 164); fill-opacity: 1;" x="0" y="0"/></g><g class="g-gtitle"><text class="gtitle" x="35" y="50" text-anchor="start" dy="0em" style="font-family: Raleway; font-size: 17px; fill: rgb(242, 245, 250); opacity: 1; font-weight: normal; white-space: pre;">Nombre cumulé de points de charge par puissance nominale</text></g><g class="g-xtitle"><text class="xtitle" x="312.5" y="460.3" text-anchor="middle" style="font-family: Raleway; font-size: 14px; fill: rgb(242, 245, 250); opacity: 1; font-weight: normal; white-space: pre;">Date de mise en service</text></g><g class="g-ytitle"><text class="ytitle" transform="rotate(-90,34.434375,260)" x="34.434375" y="260" text-anchor="middle" style="font-family: Raleway; font-size: 14px; fill: rgb(242, 245, 250); opacity: 1; font-weight: normal; white-space: pre;">Nombre de points de charge</text></g></g></svg>