<svg class="main-svg" xmlns="http://www.w3.org/2000/svg" xmlns:xlink="http://www.w3.org/1999/xlink" width="700" height="500" style="" viewBox="0 0 700 500"><rect x="0" y="0" width="700" height="500" style="fill: rgb(17, 17, 17); fill-opacity: 1;"/><defs id="defs-f67cfe"><g class="clips"><clipPath id="clipf67cfexyplot" class="plotclip"><rect width="465" height="320"/></clipPath><clipPath class="axesclip" id="clipf67cfex"><rect x="80" y="0" width="465" height="500"/></clipPath><clipPath class="axesclip" id="clipf67cfey"><rect x="0" y="100" width="700" height="320"/></clipPath><clipPath class="axesclip" id="clipf67cfexy"><rect x="80" y="100" width="465" height="320"/></clipPath></g><g class="gradients"/><g class="patterns"/></defs><g class="bglayer"/><g class="layer-below"><g class="imagelayer"/><g class="shapelayer"/></g><g class="cartesianlayer"><g class="subplot xy"><g class="layer-subplot"><g class="shapelayer"/><g class="imagelayer"/></g><g class="minor-gridlayer"><g class="x"/><g class="y"/></g><g class="gridlayer"><g class="x"><path class="xgrid crisp" transform="translate(127.53999999999999,0)" d="M0,100v320" style="stroke: rgb(40, 52, 66); stroke-opacity: 1; stroke-width: 1px;"/><path class="xgrid crisp" transform="translate(211.98,0)" d="M0,100v320" style="stroke: rgb(40, 52, 66); stroke-opacity: 1; stroke-width: 1px;"/><path class="xgrid crisp" transform="translate(296.53999999999996,0)" d="M0,100v320" style="stroke: rgb(40, 52, 66); stroke-opacity: 1; stroke-width: 1px;"/><path class="xgrid crisp" transform="translate(380.98,0)" d="M0,100v320" style="stroke: rgb(40, 52, 66); stroke-opacity: 1; stroke-width: 1px;"/><path class="xgrid crisp" transform="translate(465.53,0)" d="M0,100v320" style="stroke: rgb(40, 52, 66); stroke-opacity: 1; stroke-width: 1px;"/></g><g class="y"><path class="ygrid crisp" transform="translate(0,372.3)" d="M80,0h465" style="stroke: rgb(40, 52, 66); stroke-opacity: 1; stroke-width: 1px;"/><path class="ygrid crisp" transform="translate(0,324.61)" d="M80,0h465" style="stroke: rgb(40, 52, 66); stroke-opacity: 1; stroke-width: 1px;"/><path class="ygrid crisp" transform="translate(0,276.90999999999997)" d="M80,0h465" style="stroke: rgb(40, 52, 66); stroke-opacity: 1; stroke-width: 1px;"/><path class="ygrid crisp" transform="translate(0,229.21)" d="M80,0h465" style="stroke: rgb(40, 52, 66); stroke-opacity: 1; stroke-width: 1px;"/><path class="ygrid crisp" transform="translate(0,181.51)" d="M80,0h465" style="stroke: rgb(40, 52, 66); stroke-opacity: 1; stroke-width: 1px;"/><path class="ygrid crisp" transform="translate(0,133.82)" d="M80,0h465" style="stroke: rgb(40, 52, 66); stroke-opacity: 1; stroke-width: 1px;"/></g></g><g class="zerolinelayer"><path class="yzl zl crisp" transform="translate(0,420)" d="M80,0h465" style="stroke: rgb(40, 52, 66); stroke-opacity: 1; stroke-width: 2px;"/></g><path class="xlines-below"/><path class="ylines-below"/><g class="overlines-below"/><g class="xaxislayer-below"/><g class="yaxislayer-below"/><g class="overaxes-below"/><g class="plot" transform="translate(80,100)" clip-path="url(#clipf67cfexyplot)"><g class="scatterlayer mlayer"><g class="trace scatter trace0d9075" style="stroke-miterlimit: 2;"><g class="fills"><g><path class="js-fill" d="M465,320L0,320L0,320L465,319.95" style="fill: rgb(186, 176, 172); fill-opacity: 0.5; stroke-width: 0;"/></g><g><path class="js-fill" d="M0,320L347.01,319.26L350.49,319.24L419.89,317.93L423.36,317.5L465,316.37L465,319.95L0,320Z" style="fill: rgb(157, 117, 93); fill-opacity: 0.5; stroke-width: 0;"/></g></g><g class="errorbars"/><g class="lines"><path class="js-line" d="M0,320L465,319.95" style="vector-effect: none; fill: none; stroke: rgb(186, 176, 172); stroke-opacity: 1; stroke-width: 2px; opacity: 1;"/></g><g class="points"/><g class="text"/></g><g class="trace scatter trace2b4cf5" style="stroke-miterlimit: 2;"><g class="fills"><g><path class="js-fill" d="M0,320L180.45,319.25L183.92,319.24L242.91,318.55L246.38,318.45L305.37,317.67L308.84,317.63L319.25,317.43L322.72,316.37L343.54,314.36L347.01,313.41L357.43,312.17L360.9,310.34L364.37,307.06L367.84,305.86L371.31,302.91L374.78,301.65L385.19,297.26L388.66,296.45L392.13,295.87L395.6,292.59L409.48,290.28L412.95,289.6L416.42,287.02L419.89,286.28L437.24,277.89L440.71,276.65L454.59,274.96L458.06,274.78L465,274.61L465,316.37L423.36,317.5L419.89,317.93L350.49,319.24L347.01,319.26L0,320Z" style="fill: rgb(255, 157, 166); fill-opacity: 0.5; stroke-width: 0;"/></g></g><g class="errorbars"/><g class="lines"><path class="js-line" d="M0,320L347.01,319.26L350.49,319.24L419.89,317.93L423.36,317.5L465,316.37" style="vector-effect: none; fill: none; stroke: rgb(157, 117, 93); stroke-opacity: 1; stroke-width: 2px; opacity: 1;"/></g><g class="points"/><g class="text"/></g><g class="trace scatter trace8bbd95" style="stroke-miterlimit: 2;"><g class="fills"><g><path class="js-fill" d="M0,319.96L69.4,319.26L107.57,319.12L114.51,318.71L121.46,318.66L138.81,317.92L142.28,317.76L156.16,316.86L159.63,316.27L170.04,314.48L173.51,313.44L183.92,310.92L187.39,308.52L194.33,305.92L197.8,305.16L211.68,302.06L215.15,300.86L235.97,296.65L239.44,296.12L256.79,293.58L260.26,291.94L263.73,290.87L267.2,287.83L277.61,286.13L281.08,285.62L291.49,283.84L294.96,282.97L298.43,279.52L301.9,278.8L308.84,276.83L312.31,272.08L315.78,271.74L319.25,264.2L322.72,261.82L326.19,260.49L329.66,258.37L333.13,255.17L336.6,253.72L340.07,251.07L347.01,243.87L350.49,241.78L353.96,237.83L357.43,232.15L364.37,220.97L367.84,217.81L371.31,212.95L374.78,209.58L381.72,202.17L385.19,199L388.66,195.41L392.13,190.17L395.6,182.34L399.07,178.57L402.54,175.51L406.01,169.59L412.95,161.12L416.42,154.26L419.89,145.91L423.36,139.68L430.3,125.71L433.77,116.23L437.24,105.7L440.71,101.04L447.65,90.86L451.12,87.44L461.53,81.99L465,79.89L465,274.61L458.06,274.78L454.59,274.96L440.71,276.65L437.24,277.89L419.89,286.28L416.42,287.02L412.95,289.6L409.48,290.28L395.6,292.59L392.13,295.87L388.66,296.45L385.19,297.26L374.78,301.65L371.31,302.91L367.84,305.86L364.37,307.06L360.9,310.34L357.43,312.17L347.01,313.41L343.54,314.36L322.72,316.37L319.25,317.43L308.84,317.63L305.37,317.67L246.38,318.45L242.91,318.55L183.92,319.24L180.45,319.25L0,320Z" style="fill: rgb(178, 121, 162); fill-opacity: 0.5; stroke-width: 0;"/></g></g><g class="errorbars"/><g class="lines"><path class="js-line" d="M0,320L180.45,319.25L183.92,319.24L242.91,318.55L246.38,318.45L305.37,317.67L308.84,317.63L319.25,317.43L322.72,316.37L343.54,314.36L347.01,313.41L357.43,312.17L360.9,310.34L364.37,307.06L367.84,305.86L371.31,302.91L374.78,301.65L385.19,297.26L388.66,296.45L392.13,295.87L395.6,292.59L409.48,290.28L412.95,289.6L416.42,287.02L419.89,286.28L437.24,277.89L440.71,276.65L454.59,274.96L458.06,274.78L465,274.61" style="vector-effect: none; fill: none; stroke: rgb(255, 157, 166); stroke-opacity: 1; stroke-width: 2px; opacity: 1;"/></g><g class="points"/><g class="text"/></g><g class="trace scatter trace297999" style="stroke-miterlimit: 2;"><g class="fills"><g><path class="js-fill" d="M0,319.96L69.4,319.22L107.57,319.08L114.51,318.65L121.46,318.6L138.81,317.86L142.28,317.7L156.16,316.76L159.63,316.17L170.04,314.36L173.51,313.32L183.92,310.55L187.39,308.07L194.33,305.34L197.8,304.58L211.68,301.36L215.15,300.13L235.97,295.66L239.44,295.11L256.79,292.43L260.26,290.75L263.73,289.56L267.2,286.41L274.14,285.07L277.61,284.58L291.49,282.07L294.96,281.15L298.43,277.6L301.9,276.86L308.84,274.79L312.31,270.02L315.78,269.64L319.25,260.95L322.72,258.27L326.19,256.67L329.66,254.5L333.13,250.89L336.6,249.34L340.07,246.57L347.01,239.13L350.49,237.02L353.96,232.77L357.43,226.83L364.37,214.64L367.84,211.31L371.31,206.23L374.78,202.57L381.72,194.42L385.19,190.95L388.66,186.79L392.13,181.24L395.6,172.83L399.07,168.63L402.54,165.15L406.01,158.79L412.95,149.29L416.42,141.9L419.89,132.94L423.36,126.1L430.3,110.52L433.77,100.51L437.24,89.04L440.71,83.95L447.65,72.54L451.12,68.58L465,59.38L465,79.89L461.53,81.99L451.12,87.44L447.65,90.86L440.71,101.04L437.24,105.7L433.77,116.23L430.3,125.71L423.36,139.68L419.89,145.91L416.42,154.26L412.95,161.12L406.01,169.59L402.54,175.51L399.07,178.57L395.6,182.34L392.13,190.17L388.66,195.41L385.19,199L381.72,202.17L374.78,209.58L371.31,212.95L367.84,217.81L364.37,220.97L357.43,232.15L353.96,237.83L350.49,241.78L347.01,243.87L340.07,251.07L336.6,253.72L333.13,255.17L329.66,258.37L326.19,260.49L322.72,261.82L319.25,264.2L315.78,271.74L312.31,272.08L308.84,276.83L301.9,278.8L298.43,279.52L294.96,282.97L291.49,283.84L281.08,285.62L277.61,286.13L267.2,287.83L263.73,290.87L260.26,291.94L256.79,293.58L239.44,296.12L235.97,296.65L215.15,300.86L211.68,302.06L197.8,305.16L194.33,305.92L187.39,308.52L183.92,310.92L173.51,313.44L170.04,314.48L159.63,316.27L156.16,316.86L142.28,317.76L138.81,317.92L121.46,318.66L114.51,318.71L107.57,319.12L69.4,319.26L0,319.96Z" style="fill: rgb(238, 202, 59); fill-opacity: 0.5; stroke-width: 0;"/></g></g><g class="errorbars"/><g class="lines"><path class="js-line" d="M0,319.96L69.4,319.26L107.57,319.12L114.51,318.71L121.46,318.66L138.81,317.92L142.28,317.76L156.16,316.86L159.63,316.27L170.04,314.48L173.51,313.44L183.92,310.92L187.39,308.52L194.33,305.92L197.8,305.16L211.68,302.06L215.15,300.86L235.97,296.65L239.44,296.12L256.79,293.58L260.26,291.94L263.73,290.87L267.2,287.83L277.61,286.13L281.08,285.62L291.49,283.84L294.96,282.97L298.43,279.52L301.9,278.8L308.84,276.83L312.31,272.08L315.78,271.74L319.25,264.2L322.72,261.82L326.19,260.49L329.66,258.37L333.13,255.17L336.6,253.72L340.07,251.07L347.01,243.87L350.49,241.78L353.96,237.83L357.43,232.15L364.37,220.97L367.84,217.81L371.31,212.95L374.78,209.58L381.72,202.17L385.19,199L388.66,195.41L392.13,190.17L395.6,182.34L399.07,178.57L402.54,175.51L406.01,169.59L412.95,161.12L416.42,154.26L419.89,145.91L423.36,139.68L430.3,125.71L433.77,116.23L437.24,105.7L440.71,101.04L447.65,90.86L451.12,87.44L461.53,81.99L465,79.89" style="vector-effect: none; fill: none; stroke: rgb(178, 121, 162); stroke-opacity: 1; stroke-width: 2px; opacity: 1;"/></g><g class="points"/><g class="text"/></g><g class="trace scatter tracedec286" style="stroke-miterlimit: 2;"><g class="fills"><g><path class="js-fill" d="M0,319.96L48.58,319.22L52.05,319.17L128.4,318.46L131.87,318.3L163.1,315.57L166.57,314.97L180.45,311.62L183.92,310.46L190.86,306.29L194.33,305.25L211.68,301.26L215.15,299.99L239.44,294.97L242.91,294.5L256.79,292.29L260.26,290.6L263.73,289.41L267.2,286.26L274.14,284.91L277.61,284.42L291.49,281.89L294.96,280.96L298.43,277.42L301.9,276.68L308.84,274.6L312.31,269.83L315.78,269.45L319.25,260.75L322.72,258.08L326.19,256.47L329.66,254.29L333.13,250.53L336.6,248.96L340.07,246.18L347.01,238.72L350.49,236.61L353.96,232.31L357.43,226.36L364.37,214.12L367.84,210.75L371.31,205.65L374.78,201.92L385.19,189.92L388.66,185.65L392.13,179.75L395.6,171.06L402.54,162.97L406.01,156.09L412.95,145.41L416.42,137.64L423.36,119.85L426.83,111.28L430.3,101.66L433.77,88.63L437.24,75.7L440.71,69.68L451.12,50.24L454.59,47.28L461.53,41.07L465,38.16L465,59.38L451.12,68.58L447.65,72.54L440.71,83.95L437.24,89.04L433.77,100.51L430.3,110.52L423.36,126.1L419.89,132.94L416.42,141.9L412.95,149.29L406.01,158.79L402.54,165.15L399.07,168.63L395.6,172.83L392.13,181.24L388.66,186.79L385.19,190.95L381.72,194.42L374.78,202.57L371.31,206.23L367.84,211.31L364.37,214.64L357.43,226.83L353.96,232.77L350.49,237.02L347.01,239.13L340.07,246.57L336.6,249.34L333.13,250.89L329.66,254.5L326.19,256.67L322.72,258.27L319.25,260.95L315.78,269.64L312.31,270.02L308.84,274.79L301.9,276.86L298.43,277.6L294.96,281.15L291.49,282.07L277.61,284.58L274.14,285.07L267.2,286.41L263.73,289.56L260.26,290.75L256.79,292.43L239.44,295.11L235.97,295.66L215.15,300.13L211.68,301.36L197.8,304.58L194.33,305.34L187.39,308.07L183.92,310.55L173.51,313.32L170.04,314.36L159.63,316.17L156.16,316.76L142.28,317.7L138.81,317.86L121.46,318.6L114.51,318.65L107.57,319.08L69.4,319.22L0,319.96Z" style="fill: rgb(84, 162, 75); fill-opacity: 0.5; stroke-width: 0;"/></g></g><g class="errorbars"/><g class="lines"><path class="js-line" d="M0,319.96L69.4,319.22L107.57,319.08L114.51,318.65L121.46,318.6L138.81,317.86L142.28,317.7L156.16,316.76L159.63,316.17L170.04,314.36L173.51,313.32L183.92,310.55L187.39,308.07L194.33,305.34L197.8,304.58L211.68,301.36L215.15,300.13L235.97,295.66L239.44,295.11L256.79,292.43L260.26,290.75L263.73,289.56L267.2,286.41L274.14,285.07L277.61,284.58L291.49,282.07L294.96,281.15L298.43,277.6L301.9,276.86L308.84,274.79L312.31,270.02L315.78,269.64L319.25,260.95L322.72,258.27L326.19,256.67L329.66,254.5L333.13,250.89L336.6,249.34L340.07,246.57L347.01,239.13L350.49,237.02L353.96,232.77L357.43,226.83L364.37,214.64L367.84,211.31L371.31,206.23L374.78,202.57L381.72,194.42L385.19,190.95L388.66,186.79L392.13,181.24L395.6,172.83L399.07,168.63L402.54,165.15L406.01,158.79L412.95,149.29L416.42,141.9L419.89,132.94L423.36,126.1L430.3,110.52L433.77,100.51L437.24,89.04L440.71,83.95L447.65,72.54L451.12,68.58L465,59.38" style="vector-effect: none; fill: none; stroke: rgb(238, 202, 59); stroke-opacity: 1; stroke-width: 2px; opacity: 1;"/></g><g class="points"/><g class="text"/></g><g class="trace scatter trace8301fd" style="stroke-miterlimit: 2;"><g class="fills"><g><path class="js-fill" d="M0,319.96L48.58,319.22L52.05,319.17L128.4,318.46L131.87,318.3L163.1,315.57L166.57,314.97L180.45,311.62L183.92,310.45L190.86,306.28L194.33,305.24L211.68,301.25L215.15,299.98L239.44,294.94L242.91,294.47L256.79,292.24L260.26,290.56L263.73,289.36L267.2,286.13L274.14,284.58L277.61,284.04L291.49,281.27L294.96,280.24L298.43,276.49L301.9,275.75L308.84,273.6L312.31,268.83L315.78,268.45L319.25,259.7L322.72,257L326.19,255.3L329.66,253.01L333.13,249.11L336.6,247.31L340.07,244.28L347.01,236.74L350.49,234.59L353.96,230.21L357.43,224.26L364.37,211.91L367.84,208.54L374.78,199.6L378.25,195.09L388.66,182.41L392.13,176.41L395.6,167.58L399.07,163.12L402.54,159.27L406.01,152.09L412.95,140.56L416.42,132.44L430.3,90.78L433.77,76.44L437.24,62.26L440.71,55.63L451.12,31.28L454.59,27.33L461.53,19.55L465,16L465,38.16L461.53,41.07L454.59,47.28L451.12,50.24L440.71,69.68L437.24,75.7L433.77,88.63L430.3,101.66L426.83,111.28L423.36,119.85L416.42,137.64L412.95,145.41L406.01,156.09L402.54,162.97L395.6,171.06L392.13,179.75L388.66,185.65L385.19,189.92L374.78,201.92L371.31,205.65L367.84,210.75L364.37,214.12L357.43,226.36L353.96,232.31L350.49,236.61L347.01,238.72L340.07,246.18L336.6,248.96L333.13,250.53L329.66,254.29L326.19,256.47L322.72,258.08L319.25,260.75L315.78,269.45L312.31,269.83L308.84,274.6L301.9,276.68L298.43,277.42L294.96,280.96L291.49,281.89L277.61,284.42L274.14,284.91L267.2,286.26L263.73,289.41L260.26,290.6L256.79,292.29L242.91,294.5L239.44,294.97L215.15,299.99L211.68,301.26L194.33,305.25L190.86,306.29L183.92,310.46L180.45,311.62L166.57,314.97L163.1,315.57L131.87,318.3L128.4,318.46L52.05,319.17L48.58,319.22L0,319.96Z" style="fill: rgb(114, 183, 178); fill-opacity: 0.5; stroke-width: 0;"/></g></g><g class="errorbars"/><g class="lines"><path class="js-line" d="M0,319.96L48.58,319.22L52.05,319.17L128.4,318.46L131.87,318.3L163.1,315.57L166.57,314.97L180.45,311.62L183.92,310.46L190.86,306.29L194.33,305.25L211.68,301.26L215.15,299.99L239.44,294.97L242.91,294.5L256.79,292.29L260.26,290.6L263.73,289.41L267.2,286.26L274.14,284.91L277.61,284.42L291.49,281.89L294.96,280.96L298.43,277.42L301.9,276.68L308.84,274.6L312.31,269.83L315.78,269.45L319.25,260.75L322.72,258.08L326.19,256.47L329.66,254.29L333.13,250.53L336.6,248.96L340.07,246.18L347.01,238.72L350.49,236.61L353.96,232.31L357.43,226.36L364.37,214.12L367.84,210.75L371.31,205.65L374.78,201.92L385.19,189.92L388.66,185.65L392.13,179.75L395.6,171.06L402.54,162.97L406.01,156.09L412.95,145.41L416.42,137.64L423.36,119.85L426.83,111.28L430.3,101.66L433.77,88.63L437.24,75.7L440.71,69.68L451.12,50.24L454.59,47.28L461.53,41.07L465,38.16" style="vector-effect: none; fill: none; stroke: rgb(84, 162, 75); stroke-opacity: 1; stroke-width: 2px; opacity: 1;"/></g><g class="points"/><g class="text"/></g><g class="trace scatter trace5b8ae3" style="stroke-miterlimit: 2;"><g class="fills"/><g class="errorbars"/><g class="lines"><path class="js-line" d="M0,319.96L48.58,319.22L52.05,319.17L128.4,318.46L131.87,318.3L163.1,315.57L166.57,314.97L180.45,311.62L183.92,310.45L190.86,306.28L194.33,305.24L211.68,301.25L215.15,299.98L239.44,294.94L242.91,294.47L256.79,292.24L260.26,290.56L263.73,289.36L267.2,286.13L274.14,284.58L277.61,284.04L291.49,281.27L294.96,280.24L298.43,276.49L301.9,275.75L308.84,273.6L312.31,268.83L315.78,268.45L319.25,259.7L322.72,257L326.19,255.3L329.66,253.01L333.13,249.11L336.6,247.31L340.07,244.28L347.01,236.74L350.49,234.59L353.96,230.21L357.43,224.26L364.37,211.91L367.84,208.54L374.78,199.6L378.25,195.09L388.66,182.41L392.13,176.41L395.6,167.58L399.07,163.12L402.54,159.27L406.01,152.09L412.95,140.56L416.42,132.44L430.3,90.78L433.77,76.44L437.24,62.26L440.71,55.63L451.12,31.28L454.59,27.33L461.53,19.55L465,16" style="vector-effect: none; fill: none; stroke: rgb(114, 183, 178); stroke-opacity: 1; stroke-width: 2px; opacity: 1;"/></g><g class="points"/><g class="text"/></g></g></g><g class="overplot"/><path class="xlines-above crisp" d="M0,0" style="fill: none;"/><path class="ylines-above crisp" d="M0,0" style="fill: none;"/><g class="overlines-above"/><g class="xaxislayer-above"><g class="xtick"><text text-anchor="middle" x="0" y="433" transform="translate(127.53999999999999,0)" style="font-family: Raleway; font-size: 12px; fill: rgb(242, 245, 250); fill-opacity: 1; white-space: pre; opacity: 1;">2014</text></g><g class="xtick"><text text-anchor="middle" x="0" y="433" style="font-family: Raleway; font-size: 12px; fill: rgb(242, 245, 250); fill-opacity: 1; white-space: pre; opacity: 1;" transform="translate(211.98,0)">2016</text></g><g class="xtick"><text text-anchor="middle" x="0" y="433" style="font-family: Raleway; font-size: 12px; fill: rgb(242, 245, 250); fill-opacity: 1; white-space: pre; opacity: 1;" transform="translate(296.53999999999996,0)">2018</text></g><g class="xtick"><text text-anchor="middle" x="0" y="433" style="font-family: Raleway; font-size: 12px; fill: rgb(242, 245, 250); fill-opacity: 1; white-space: pre; opacity: 1;" transform="translate(380.98,0)">2020</text></g><g class="xtick"><text text-anchor="middle" x="0" y="433" style="font-family: Raleway; font-size: 12px; fill: rgb(242, 245, 250); fill-opacity: 1; white-space: pre; opacity: 1;" transform="translate(465.53,0)">2022</text></g></g><g class="yaxislayer-above"><g class="ytick"><text text-anchor="end" x="79" y="4.199999999999999" transform="translate(0,420)" style="font-family: Raleway; font-size: 12px; fill: rgb(242, 245, 250); fill-opacity: 1; white-space: pre; opacity: 1;">0</text></g><g class="ytick"><text text-anchor="end" x="79" y="4.199999999999999" style="font-family: Raleway; font-size: 12px; fill: rgb(242, 245, 250); fill-opacity: 1; white-space: pre; opacity: 1;" transform="translate(0,372.3)">10k</text></g><g class="ytick"><text text-anchor="end" x="79" y="4.199999999999999" style="font-family: Raleway; font-size: 12px; fill: rgb(242, 245, 250); fill-opacity: 1; white-space: pre; opacity: 1;" transform="translate(0,324.61)">20k</text></g><g class="ytick"><text text-anchor="end" x="79" y="4.199999999999999" style="font-family: Raleway; font-size: 12px; fill: rgb(242, 245, 250); fill-opacity: 1; white-space: pre; opacity: 1;" transform="translate(0,276.90999999999997)">30k</text></g><g class="ytick"><text text-anchor="end" x="79" y="4.199999999999999" style="font-family: Raleway; font-size: 12px; fill: rgb(242, 245, 250); fill-opacity: 1; white-space: pre; opacity: 1;" transform="translate(0,229.21)">40k</text></g><g class="ytick"><text text-anchor="end" x="79" y="4.199999999999999" style="font-family: Raleway; font-size: 12px; fill: rgb(242, 245, 250); fill-opacity: 1; white-space: pre; opacity: 1;" transform="translate(0,181.51)">50k</text></g><g class="ytick"><text text-anchor="end" x="79" y="4.199999999999999" style="font-family: Raleway; font-size: 12px; fill: rgb(242, 245, 250); fill-opacity: 1; white-space: pre; opacity: 1;" transform="translate(0,133.82)">60k</text></g></g><g class="overaxes-above"/></g></g><g class="polarlayer"/><g class="smithlayer"/><g class="ternarylayer"/><g class="geolayer"/><g class="funnelarealayer"/><g class="pielayer"/><g class="iciclelayer"/><g class="treemaplayer"/><g class="sunburstlayer"/><g class="glimages"/><defs id="topdefs-f67cfe"><g class="clips"/><clipPath id="legendf67cfe"><rect width="134" height="162" x="0" y="0"/></clipPath></defs><g class="layer-above"><g class="imagelayer"/><g class="shapelayer"/></g><g class="infolayer"><g class="legend" pointer-events="all" transform="translate(554.3,100)"><rect class="bg" shape-rendering="crispEdges" width="134" height="162" x="0" y="0" style="stroke: rgb(68, 68, 68); stroke-opacity: 1; fill: rgb(17, 17, 17); fill-opacity: 1; stroke-width: 0px;"/><g class="scrollbox" transform="" clip-path="url(#legendf67cfe)"><text class="legendtitletext" text-anchor="start" x="2" y="18.2" style="font-family: Raleway; font-size: 14px; fill: rgb(242, 245, 250); fill-opacity: 1; white-space: pre;">Puissance nominale</text><g class="groups" transform=""><g class="traces" transform="translate(0,32.7)" style="opacity: 1;"><text class="legendtext" text-anchor="start" x="40" y="4.680000000000001" style="font-family: Raleway; font-size: 12px; fill: rgb(242, 245, 250); fill-opacity: 1; white-space: pre;">1.7</text><g class="layers"><g class="legendfill"><path class="js-fill" d="M5,-2h30v6h-30z" style="stroke-width: 0; fill: rgb(186, 176, 172); fill-opacity: 0.5;"/></g><g class="legendlines"><path class="js-line" d="M5,-2h30" style="fill: none; stroke: rgb(186, 176, 172); stroke-opacity: 1; stroke-width: 2px;"/></g><g class="legendsymbols"><g class="legendpoints"/></g></g><rect class="legendtoggle" x="0" y="-9.5" width="65.125" height="19" style="fill: rgb(0, 0, 0); fill-opacity: 0;"/></g></g><g class="groups" transform=""><g class="traces" transform="translate(0,51.7)" style="opacity: 1;"><text class="legendtext" text-anchor="start" x="40" y="4.680000000000001" style="font-family: Raleway; font-size: 12px; fill: rgb(242, 245, 250); fill-opacity: 1; white-space: pre;">3.4</text><g class="layers"><g class="legendfill"><path class="js-fill" d="M5,-2h30v6h-30z" style="stroke-width: 0; fill: rgb(157, 117, 93); fill-opacity: 0.5;"/></g><g class="legendlines"><path class="js-line" d="M5,-2h30" style="fill: none; stroke: rgb(157, 117, 93); stroke-opacity: 1; stroke-width: 2px;"/></g><g class="legendsymbols"><g class="legendpoints"/></g></g><rect class="legendtoggle" x="0" y="-9.5" width="65.125" height="19" style="fill: rgb(0, 0, 0); fill-opacity: 0;"/></g></g><g class="groups" transform=""><g class="traces" transform="translate(0,70.7)" style="opacity: 1;"><text class="legendtext" text-anchor="start" x="40" y="4.680000000000001" style="font-family: Raleway; font-size: 12px; fill: rgb(242, 245, 250); fill-opacity: 1; white-space: pre;">7.5</text><g class="layers"><g class="legendfill"><path class="js-fill" d="M5,-2h30v6h-30z" style="stroke-width: 0; fill: rgb(255, 157, 166); fill-opacity: 0.5;"/></g><g class="legendlines"><path class="js-line" d="M5,-2h30" style="fill: none; stroke: rgb(255, 157, 166); stroke-opacity: 1; stroke-width: 2px;"/></g><g class="legendsymbols"><g class="legendpoints"/></g></g><rect class="legendtoggle" x="0" y="-9.5" width="65.125" height="19" style="fill: rgb(0, 0, 0); fill-opacity: 0;"/></g></g><g class="groups" transform=""><g class="traces" transform="translate(0,89.7)" style="opacity: 1;"><text class="legendtext" text-anchor="start" x="40" y="4.680000000000001" style="font-family: Raleway; font-size: 12px; fill: rgb(242, 245, 250); fill-opacity: 1; white-space: pre;">22</text><g class="layers"><g class="legendfill"><path class="js-fill" d="M5,-2h30v6h-30z" style="stroke-width: 0; fill: rgb(178, 121, 162); fill-opacity: 0.5;"/></g><g class="legendlines"><path class="js-line" d="M5,-2h30" style="fill: none; stroke: rgb(178, 121, 162); stroke-opacity: 1; stroke-width: 2px;"/></g><g class="legendsymbols"><g class="legendpoints"/></g></g><rect class="legendtoggle" x="0" y="-9.5" width="65.125" height="19" style="fill: rgb(0, 0, 0); fill-opacity: 0;"/></g></g><g class="groups" transform=""><g class="traces" transform="translate(0,108.7)" style="opacity: 1;"><text class="legendtext" text-anchor="start" x="40" y="4.680000000000001" style="font-family: Raleway; font-size: 12px; fill: rgb(242, 245, 250); fill-opacity: 1; white-space: pre;">50</text><g class="layers"><g class="legendfill"><path class="js-fill" d="M5,-2h30v6h-30z" style="stroke-width: 0; fill: rgb(238, 202, 59); fill-opacity: 0.5;"/></g><g class="legendlines"><path class="js-line" d="M5,-2h30" style="fill: none; stroke: rgb(238, 202, 59); stroke-opacity: 1; stroke-width: 2px;"/></g><g class="legendsymbols"><g class="legendpoints"/></g></g><rect class="legendtoggle" x="0" y="-9.5" width="65.125" height="19" style="fill: rgb(0, 0, 0); fill-opacity: 0;"/></g></g><g class="groups" transform=""><g class="traces" transform="translate(0,127.7)" style="opacity: 1;"><text class="legendtext" text-anchor="start" x="40" y="4.680000000000001" style="font-family: Raleway; font-size: 12px; fill: rgb(242, 245, 250); fill-opacity: 1; white-space: pre;">150</text><g class="layers"><g class="legendfill"><path class="js-fill" d="M5,-2h30v6h-30z" style="stroke-width: 0; fill: rgb(84, 162, 75); fill-opacity: 0.5;"/></g><g class="legendlines"><path class="js-line" d="M5,-2h30" style="fill: none; stroke: rgb(84, 162, 75); stroke-opacity: 1; stroke-width: 2px;"/></g><g class="legendsymbols"><g class="legendpoints"/></g></g><rect class="legendtoggle" x="0" y="-9.5" width="65.125" height="19" style="fill: rgb(0, 0, 0); fill-opacity: 0;"/></g></g><g class="groups" transform=""><g class="traces" transform="translate(0,146.7)" style="opacity: 1;"><text class="legendtext" text-anchor="start" x="40" y="4.680000000000001" style="font-family: Raleway; font-size: 12px; fill: rgb(242, 245, 250); fill-opacity: 1; white-space: pre;">>150</text><g class="layers"><g class="legendfill"><path class="js-fill" d="M5,-2h30v6h-30z" style="stroke-width: 0; fill: rgb(114, 183, 178); fill-opacity: 0.5;"/></g><g class="legendlines"><path class="js-line" d="M5,-2h30" style="fill: none; stroke: rgb(114, 183, 178); stroke-opacity: 1; stroke-width: 2px;"/></g><g class="legendsymbols"><g class="legendpoints"/></g></g><rect class="legendtoggle" x="0" y="-9.5" width="65.125" height="19" style="fill: rgb(0, 0, 0); fill-opacity: 0;"/></g></g></g><rect class="scrollbar" rx="20" ry="3" width="0" height="0" x="0" y="0" style="fill: rgb(128, 139, 164); fill-opacity: 1;"/></g><g class="g-gtitle"><text class="gtitle" x="35" y="50" text-anchor="start" dy="0em" style="font-family: Raleway; font-size: 17px; fill: rgb(242, 245, 250); opacity: 1; font-weight: normal; white-space: pre;">Nombre cumulé de points de charge par puissance nominale</text></g><g class="g-xtitle"><text class="xtitle" x="312.5" y="460.3" text-anchor="middle" style="font-family: Raleway; font-size: 14px; fill: rgb(242, 245, 250); opacity: 1; font-weight: normal; white-space: pre;">Date de mise en service</text></g><g class="g-ytitle"><text class="ytitle" transform="rotate(-90,33.746875,260)" x="33.746875" y="260" text-anchor="middle" style="font-family: Raleway; font-size: 14px; fill: rgb(242, 245, 250); opacity: 1; font-weight: normal; white-space: pre;">Nombre de points de charge</text></g></g></svg>