<svg class="main-svg" xmlns="http://www.w3.org/2000/svg" xmlns:xlink="http://www.w3.org/1999/xlink" width="700" height="500" style="" viewBox="0 0 700 500"><rect x="0" y="0" width="700" height="500" style="fill: rgb(17, 17, 17); fill-opacity: 1;"/><defs id="defs-295c30"><g class="clips"><clipPath id="clip295c30xyplot" class="plotclip"><rect width="432" height="320"/></clipPath><clipPath class="axesclip" id="clip295c30x"><rect x="80" y="0" width="432" height="500"/></clipPath><clipPath class="axesclip" id="clip295c30y"><rect x="0" y="100" width="700" height="320"/></clipPath><clipPath class="axesclip" id="clip295c30xy"><rect x="80" y="100" width="432" height="320"/></clipPath></g><g class="gradients"/><g class="patterns"/></defs><g class="bglayer"/><g class="layer-below"><g class="imagelayer"/><g class="shapelayer"/></g><g class="cartesianlayer"><g class="subplot xy"><g class="layer-subplot"><g class="shapelayer"/><g class="imagelayer"/></g><g class="minor-gridlayer"><g class="x"/><g class="y"/></g><g class="gridlayer"><g class="x"><path class="xgrid crisp" transform="translate(124.17,0)" d="M0,100v320" style="stroke: rgb(40, 52, 66); stroke-opacity: 1; stroke-width: 1px;"/><path class="xgrid crisp" transform="translate(202.61,0)" d="M0,100v320" style="stroke: rgb(40, 52, 66); stroke-opacity: 1; stroke-width: 1px;"/><path class="xgrid crisp" transform="translate(281.16999999999996,0)" d="M0,100v320" style="stroke: rgb(40, 52, 66); stroke-opacity: 1; stroke-width: 1px;"/><path class="xgrid crisp" transform="translate(359.62,0)" d="M0,100v320" style="stroke: rgb(40, 52, 66); stroke-opacity: 1; stroke-width: 1px;"/><path class="xgrid crisp" transform="translate(438.17,0)" d="M0,100v320" style="stroke: rgb(40, 52, 66); stroke-opacity: 1; stroke-width: 1px;"/></g><g class="y"><path class="ygrid crisp" transform="translate(0,372.35)" d="M80,0h432" style="stroke: rgb(40, 52, 66); stroke-opacity: 1; stroke-width: 1px;"/><path class="ygrid crisp" transform="translate(0,324.69)" d="M80,0h432" style="stroke: rgb(40, 52, 66); stroke-opacity: 1; stroke-width: 1px;"/><path class="ygrid crisp" transform="translate(0,277.03999999999996)" d="M80,0h432" style="stroke: rgb(40, 52, 66); stroke-opacity: 1; stroke-width: 1px;"/><path class="ygrid crisp" transform="translate(0,229.38)" d="M80,0h432" style="stroke: rgb(40, 52, 66); stroke-opacity: 1; stroke-width: 1px;"/><path class="ygrid crisp" transform="translate(0,181.73000000000002)" d="M80,0h432" style="stroke: rgb(40, 52, 66); stroke-opacity: 1; stroke-width: 1px;"/><path class="ygrid crisp" transform="translate(0,134.07)" d="M80,0h432" style="stroke: rgb(40, 52, 66); stroke-opacity: 1; stroke-width: 1px;"/></g></g><g class="zerolinelayer"><path class="yzl zl crisp" transform="translate(0,420)" d="M80,0h432" style="stroke: rgb(40, 52, 66); stroke-opacity: 1; stroke-width: 2px;"/></g><path class="xlines-below"/><path class="ylines-below"/><g class="overlines-below"/><g class="xaxislayer-below"/><g class="yaxislayer-below"/><g class="overaxes-below"/><g class="plot" transform="translate(80,100)" clip-path="url(#clip295c30xyplot)"><g class="scatterlayer mlayer"><g class="trace scatter trace4ed817" style="stroke-miterlimit: 2;"><g class="fills"><g><path class="js-fill" d="M432,320L0,320L0,319.96L116.06,319.7L119.28,319.67L219.22,316.95L222.45,316.93L257.91,316.15L261.13,316L283.7,314.81L286.93,313.89L290.15,309.29L293.37,309.1L299.82,307.27L303.04,306.93L322.39,304.56L325.61,304.1L351.4,299.98L354.63,299.12L373.97,292.39L377.19,290.26L390.09,282.02L393.31,279.06L402.99,264.52L406.21,260.81L412.66,255.71L415.88,250.95L419.1,247.58L422.33,245.31L432,239.53" style="fill: rgb(186, 176, 172); fill-opacity: 0.5; stroke-width: 0;"/></g><g><path class="js-fill" d="M0,319.96L35.46,319.98L45.13,319.22L64.48,319.13L99.94,319.16L106.39,318.56L112.84,319.72L119.28,319.67L122.51,318.3L151.52,315.57L154.75,314.97L167.64,311.63L170.87,310.46L177.31,306.29L180.54,305.26L196.66,301.27L199.88,299.99L222.45,294.96L225.67,294.49L238.57,292.27L241.79,290.58L245.01,289.39L248.24,286.15L254.69,284.6L257.91,284.06L270.81,281.29L274.03,280.27L277.25,276.52L280.48,275.78L286.93,273.63L290.15,268.87L293.37,268.49L296.6,259.75L299.82,257.04L303.04,255.35L306.27,253.06L309.49,249.17L312.72,247.37L315.94,244.34L322.39,236.8L325.61,234.66L328.84,230.28L332.06,224.33L338.51,211.99L341.73,208.63L348.18,199.7L351.4,195.2L361.07,182.5L364.3,176.5L367.52,167.68L370.75,163.22L373.97,159.37L377.19,152.2L383.64,140.66L386.87,132.54L399.76,90.83L402.99,76.49L406.21,62.31L409.43,55.68L419.1,31.31L422.33,27.36L428.78,19.56L432,16L432,239.53L422.33,245.31L419.1,247.58L415.88,250.95L412.66,255.71L406.21,260.81L402.99,264.52L393.31,279.06L390.09,282.02L377.19,290.26L373.97,292.39L354.63,299.12L351.4,299.98L325.61,304.1L322.39,304.56L303.04,306.93L299.82,307.27L293.37,309.1L290.15,309.29L286.93,313.89L283.7,314.81L261.13,316L257.91,316.15L222.45,316.93L219.22,316.95L119.28,319.67L116.06,319.7L0,319.96Z" style="fill: rgb(157, 117, 93); fill-opacity: 0.5; stroke-width: 0;"/></g></g><g class="errorbars"/><g class="lines"><path class="js-line" d="M0,319.96L116.06,319.7L119.28,319.67L219.22,316.95L222.45,316.93L257.91,316.15L261.13,316L283.7,314.81L286.93,313.89L290.15,309.29L293.37,309.1L299.82,307.27L303.04,306.93L322.39,304.56L325.61,304.1L351.4,299.98L354.63,299.12L373.97,292.39L377.19,290.26L390.09,282.02L393.31,279.06L402.99,264.52L406.21,260.81L412.66,255.71L415.88,250.95L419.1,247.58L422.33,245.31L432,239.53" style="vector-effect: none; fill: none; stroke: rgb(186, 176, 172); stroke-opacity: 1; stroke-width: 2px; opacity: 1;"/></g><g class="points"/><g class="text"/></g><g class="trace scatter traceabb0b6" style="stroke-miterlimit: 2;"><g class="fills"/><g class="errorbars"/><g class="lines"><path class="js-line" d="M0,319.96L35.46,319.98L45.13,319.22L64.48,319.13L99.94,319.16L106.39,318.56L112.84,319.72L119.28,319.67L122.51,318.3L151.52,315.57L154.75,314.97L167.64,311.63L170.87,310.46L177.31,306.29L180.54,305.26L196.66,301.27L199.88,299.99L222.45,294.96L225.67,294.49L238.57,292.27L241.79,290.58L245.01,289.39L248.24,286.15L254.69,284.6L257.91,284.06L270.81,281.29L274.03,280.27L277.25,276.52L280.48,275.78L286.93,273.63L290.15,268.87L293.37,268.49L296.6,259.75L299.82,257.04L303.04,255.35L306.27,253.06L309.49,249.17L312.72,247.37L315.94,244.34L322.39,236.8L325.61,234.66L328.84,230.28L332.06,224.33L338.51,211.99L341.73,208.63L348.18,199.7L351.4,195.2L361.07,182.5L364.3,176.5L367.52,167.68L370.75,163.22L373.97,159.37L377.19,152.2L383.64,140.66L386.87,132.54L399.76,90.83L402.99,76.49L406.21,62.31L409.43,55.68L419.1,31.31L422.33,27.36L428.78,19.56L432,16" style="vector-effect: none; fill: none; stroke: rgb(157, 117, 93); stroke-opacity: 1; stroke-width: 2px; opacity: 1;"/></g><g class="points"/><g class="text"/></g></g></g><g class="overplot"/><path class="xlines-above crisp" d="M0,0" style="fill: none;"/><path class="ylines-above crisp" d="M0,0" style="fill: none;"/><g class="overlines-above"/><g class="xaxislayer-above"><g class="xtick"><text text-anchor="middle" x="0" y="433" transform="translate(124.17,0)" style="font-family: Raleway; font-size: 12px; fill: rgb(242, 245, 250); fill-opacity: 1; white-space: pre; opacity: 1;">2014</text></g><g class="xtick"><text text-anchor="middle" x="0" y="433" style="font-family: Raleway; font-size: 12px; fill: rgb(242, 245, 250); fill-opacity: 1; white-space: pre; opacity: 1;" transform="translate(202.61,0)">2016</text></g><g class="xtick"><text text-anchor="middle" x="0" y="433" style="font-family: Raleway; font-size: 12px; fill: rgb(242, 245, 250); fill-opacity: 1; white-space: pre; opacity: 1;" transform="translate(281.16999999999996,0)">2018</text></g><g class="xtick"><text text-anchor="middle" x="0" y="433" style="font-family: Raleway; font-size: 12px; fill: rgb(242, 245, 250); fill-opacity: 1; white-space: pre; opacity: 1;" transform="translate(359.62,0)">2020</text></g><g class="xtick"><text text-anchor="middle" x="0" y="433" style="font-family: Raleway; font-size: 12px; fill: rgb(242, 245, 250); fill-opacity: 1; white-space: pre; opacity: 1;" transform="translate(438.17,0)">2022</text></g></g><g class="yaxislayer-above"><g class="ytick"><text text-anchor="end" x="79" y="4.199999999999999" transform="translate(0,420)" style="font-family: Raleway; font-size: 12px; fill: rgb(242, 245, 250); fill-opacity: 1; white-space: pre; opacity: 1;">0</text></g><g class="ytick"><text text-anchor="end" x="79" y="4.199999999999999" style="font-family: Raleway; font-size: 12px; fill: rgb(242, 245, 250); fill-opacity: 1; white-space: pre; opacity: 1;" transform="translate(0,372.35)">10k</text></g><g class="ytick"><text text-anchor="end" x="79" y="4.199999999999999" style="font-family: Raleway; font-size: 12px; fill: rgb(242, 245, 250); fill-opacity: 1; white-space: pre; opacity: 1;" transform="translate(0,324.69)">20k</text></g><g class="ytick"><text text-anchor="end" x="79" y="4.199999999999999" style="font-family: Raleway; font-size: 12px; fill: rgb(242, 245, 250); fill-opacity: 1; white-space: pre; opacity: 1;" transform="translate(0,277.03999999999996)">30k</text></g><g class="ytick"><text text-anchor="end" x="79" y="4.199999999999999" style="font-family: Raleway; font-size: 12px; fill: rgb(242, 245, 250); fill-opacity: 1; white-space: pre; opacity: 1;" transform="translate(0,229.38)">40k</text></g><g class="ytick"><text text-anchor="end" x="79" y="4.199999999999999" style="font-family: Raleway; font-size: 12px; fill: rgb(242, 245, 250); fill-opacity: 1; white-space: pre; opacity: 1;" transform="translate(0,181.73000000000002)">50k</text></g><g class="ytick"><text text-anchor="end" x="79" y="4.199999999999999" style="font-family: Raleway; font-size: 12px; fill: rgb(242, 245, 250); fill-opacity: 1; white-space: pre; opacity: 1;" transform="translate(0,134.07)">60k</text></g></g><g class="overaxes-above"/></g></g><g class="polarlayer"/><g class="smithlayer"/><g class="ternarylayer"/><g class="geolayer"/><g class="funnelarealayer"/><g class="pielayer"/><g class="iciclelayer"/><g class="treemaplayer"/><g class="sunburstlayer"/><g class="glimages"/><defs id="topdefs-295c30"><g class="clips"/><clipPath id="legend295c30"><rect width="167" height="67" x="0" y="0"/></clipPath></defs><g class="layer-above"><g class="imagelayer"/><g class="shapelayer"/></g><g class="infolayer"><g class="legend" pointer-events="all" transform="translate(520.64,100)"><rect class="bg" shape-rendering="crispEdges" style="stroke: rgb(68, 68, 68); stroke-opacity: 1; fill: rgb(17, 17, 17); fill-opacity: 1; stroke-width: 0px;" width="167" height="67" x="0" y="0"/><g class="scrollbox" transform="" clip-path="url(#legend295c30)"><text class="legendtitletext" text-anchor="start" x="2" y="18.2" style="font-family: Raleway; font-size: 14px; fill: rgb(242, 245, 250); fill-opacity: 1; white-space: pre;">Possède une prise type 2</text><g class="groups" transform=""><g class="traces" transform="translate(0,32.7)" style="opacity: 1;"><text class="legendtext" text-anchor="start" x="40" y="4.680000000000001" style="font-family: Raleway; font-size: 12px; fill: rgb(242, 245, 250); fill-opacity: 1; white-space: pre;">Non</text><g class="layers"><g class="legendfill"><path class="js-fill" d="M5,-2h30v6h-30z" style="stroke-width: 0; fill: rgb(186, 176, 172); fill-opacity: 0.5;"/></g><g class="legendlines"><path class="js-line" d="M5,-2h30" style="fill: none; stroke: rgb(186, 176, 172); stroke-opacity: 1; stroke-width: 2px;"/></g><g class="legendsymbols"><g class="legendpoints"/></g></g><rect class="legendtoggle" x="0" y="-9.5" width="63.3125" height="19" style="fill: rgb(0, 0, 0); fill-opacity: 0;"/></g></g><g class="groups" transform=""><g class="traces" transform="translate(0,51.7)" style="opacity: 1;"><text class="legendtext" text-anchor="start" x="40" y="4.680000000000001" style="font-family: Raleway; font-size: 12px; fill: rgb(242, 245, 250); fill-opacity: 1; white-space: pre;">Oui</text><g class="layers"><g class="legendfill"><path class="js-fill" d="M5,-2h30v6h-30z" style="stroke-width: 0; fill: rgb(157, 117, 93); fill-opacity: 0.5;"/></g><g class="legendlines"><path class="js-line" d="M5,-2h30" style="fill: none; stroke: rgb(157, 117, 93); stroke-opacity: 1; stroke-width: 2px;"/></g><g class="legendsymbols"><g class="legendpoints"/></g></g><rect class="legendtoggle" x="0" y="-9.5" width="63.3125" height="19" style="fill: rgb(0, 0, 0); fill-opacity: 0;"/></g></g></g><rect class="scrollbar" rx="20" ry="3" width="0" height="0" style="fill: rgb(128, 139, 164); fill-opacity: 1;" x="0" y="0"/></g><g class="g-gtitle"><text class="gtitle" x="35" y="50" text-anchor="start" dy="0em" style="font-family: Raleway; font-size: 17px; fill: rgb(242, 245, 250); opacity: 1; font-weight: normal; white-space: pre;">Nombre cumulé de points en fonction s'il possèdent une prise type 2</text></g><g class="g-xtitle"><text class="xtitle" x="296" y="460.3" text-anchor="middle" style="font-family: Raleway; font-size: 14px; fill: rgb(242, 245, 250); opacity: 1; font-weight: normal; white-space: pre;">Date de mise en service</text></g><g class="g-ytitle"><text class="ytitle" transform="rotate(-90,33.746875,260)" x="33.746875" y="260" text-anchor="middle" style="font-family: Raleway; font-size: 14px; fill: rgb(242, 245, 250); opacity: 1; font-weight: normal; white-space: pre;">Nombre de points de charge</text></g></g></svg>