<svg class="main-svg" xmlns="http://www.w3.org/2000/svg" xmlns:xlink="http://www.w3.org/1999/xlink" width="700" height="500" style="" viewBox="0 0 700 500"><rect x="0" y="0" width="700" height="500" style="fill: rgb(17, 17, 17); fill-opacity: 1;"/><defs id="defs-d5726e"><g class="clips"><clipPath id="clipd5726exyplot" class="plotclip"><rect width="432" height="320"/></clipPath><clipPath class="axesclip" id="clipd5726ex"><rect x="80" y="0" width="432" height="500"/></clipPath><clipPath class="axesclip" id="clipd5726ey"><rect x="0" y="100" width="700" height="320"/></clipPath><clipPath class="axesclip" id="clipd5726exy"><rect x="80" y="100" width="432" height="320"/></clipPath></g><g class="gradients"/><g class="patterns"/></defs><g class="bglayer"/><g class="layer-below"><g class="imagelayer"/><g class="shapelayer"/></g><g class="cartesianlayer"><g class="subplot xy"><g class="layer-subplot"><g class="shapelayer"/><g class="imagelayer"/></g><g class="minor-gridlayer"><g class="x"/><g class="y"/></g><g class="gridlayer"><g class="x"><path class="xgrid crisp" transform="translate(124.17,0)" d="M0,100v320" style="stroke: rgb(40, 52, 66); stroke-opacity: 1; stroke-width: 1px;"/><path class="xgrid crisp" transform="translate(202.61,0)" d="M0,100v320" style="stroke: rgb(40, 52, 66); stroke-opacity: 1; stroke-width: 1px;"/><path class="xgrid crisp" transform="translate(281.16999999999996,0)" d="M0,100v320" style="stroke: rgb(40, 52, 66); stroke-opacity: 1; stroke-width: 1px;"/><path class="xgrid crisp" transform="translate(359.62,0)" d="M0,100v320" style="stroke: rgb(40, 52, 66); stroke-opacity: 1; stroke-width: 1px;"/><path class="xgrid crisp" transform="translate(438.17,0)" d="M0,100v320" style="stroke: rgb(40, 52, 66); stroke-opacity: 1; stroke-width: 1px;"/></g><g class="y"><path class="ygrid crisp" transform="translate(0,363.08)" d="M80,0h432" style="stroke: rgb(40, 52, 66); stroke-opacity: 1; stroke-width: 1px;"/><path class="ygrid crisp" transform="translate(0,306.16999999999996)" d="M80,0h432" style="stroke: rgb(40, 52, 66); stroke-opacity: 1; stroke-width: 1px;"/><path class="ygrid crisp" transform="translate(0,249.25)" d="M80,0h432" style="stroke: rgb(40, 52, 66); stroke-opacity: 1; stroke-width: 1px;"/><path class="ygrid crisp" transform="translate(0,192.32999999999998)" d="M80,0h432" style="stroke: rgb(40, 52, 66); stroke-opacity: 1; stroke-width: 1px;"/><path class="ygrid crisp" transform="translate(0,135.41)" d="M80,0h432" style="stroke: rgb(40, 52, 66); stroke-opacity: 1; stroke-width: 1px;"/></g></g><g class="zerolinelayer"><path class="yzl zl crisp" transform="translate(0,420)" d="M80,0h432" style="stroke: rgb(40, 52, 66); stroke-opacity: 1; stroke-width: 2px;"/></g><path class="xlines-below"/><path class="ylines-below"/><g class="overlines-below"/><g class="xaxislayer-below"/><g class="yaxislayer-below"/><g class="overaxes-below"/><g class="plot" transform="translate(80,100)" clip-path="url(#clipd5726exyplot)"><g class="scatterlayer mlayer"><g class="trace scatter trace722da2" style="stroke-miterlimit: 2;"><g class="fills"><g><path class="js-fill" d="M432,320L0,320L0,319.95L103.16,319.75L106.39,319.72L164.42,318.55L167.64,318.39L209.55,316.63L212.78,316.23L235.34,315.27L238.57,315.25L257.91,314.57L261.13,314.41L283.7,312.96L286.93,312.08L290.15,306.63L293.37,306.43L296.6,305.06L299.82,304.54L322.39,300.49L325.61,299.81L348.18,295.18L351.4,294.46L364.3,289.04L367.52,287.47L373.97,284.97L377.19,282.37L390.09,272.13L393.31,268.4L402.99,249.99L406.21,245.67L409.43,243.26L412.66,239.62L419.1,230.12L422.33,227.39L432,220.04" style="fill: rgb(186, 176, 172); fill-opacity: 0.5; stroke-width: 0;"/></g><g><path class="js-fill" d="M0,319.95L99.94,319.77L103.16,319.11L112.84,319.66L116.06,319.64L119.28,319.61L122.51,318.74L151.52,315.59L154.75,314.89L167.64,311.15L170.87,309.95L177.31,305.37L180.54,304.39L196.66,301.48L199.88,300.23L222.45,295.41L225.67,295.22L238.57,293.94L241.79,292.22L245.01,291.15L248.24,287.71L254.69,286.29L257.91,285.85L270.81,283.29L274.03,282.28L280.48,280.32L283.7,279.79L286.93,278.56L290.15,272.92L293.37,272.57L296.6,262.58L306.27,256.82L309.49,252.53L312.72,250.58L315.94,247.15L322.39,238.38L325.61,235.9L328.84,231.03L332.06,224.61L338.51,213.75L341.73,210.29L354.63,191.51L357.85,187.37L361.07,182.66L364.3,176.18L367.52,169.12L370.75,164.39L373.97,159.9L377.19,152.03L386.87,133.7L390.09,122.98L393.31,114.64L396.54,103.04L399.76,92.08L402.99,76.57L406.21,66.62L409.43,60.67L412.66,53.13L415.88,43.21L419.1,35.81L422.33,31.08L432,16L432,220.04L422.33,227.39L419.1,230.12L412.66,239.62L409.43,243.26L406.21,245.67L402.99,249.99L393.31,268.4L390.09,272.13L377.19,282.37L373.97,284.97L367.52,287.47L364.3,289.04L351.4,294.46L348.18,295.18L325.61,299.81L322.39,300.49L299.82,304.54L296.6,305.06L293.37,306.43L290.15,306.63L286.93,312.08L283.7,312.96L261.13,314.41L257.91,314.57L238.57,315.25L235.34,315.27L212.78,316.23L209.55,316.63L167.64,318.39L164.42,318.55L106.39,319.72L103.16,319.75L0,319.95Z" style="fill: rgb(157, 117, 93); fill-opacity: 0.5; stroke-width: 0;"/></g></g><g class="errorbars"/><g class="lines"><path class="js-line" d="M0,319.95L103.16,319.75L106.39,319.72L164.42,318.55L167.64,318.39L209.55,316.63L212.78,316.23L235.34,315.27L238.57,315.25L257.91,314.57L261.13,314.41L283.7,312.96L286.93,312.08L290.15,306.63L293.37,306.43L296.6,305.06L299.82,304.54L322.39,300.49L325.61,299.81L348.18,295.18L351.4,294.46L364.3,289.04L367.52,287.47L373.97,284.97L377.19,282.37L390.09,272.13L393.31,268.4L402.99,249.99L406.21,245.67L409.43,243.26L412.66,239.62L419.1,230.12L422.33,227.39L432,220.04" style="vector-effect: none; fill: none; stroke: rgb(186, 176, 172); stroke-opacity: 1; stroke-width: 2px; opacity: 1;"/></g><g class="points"/><g class="text"/></g><g class="trace scatter tracebef259" style="stroke-miterlimit: 2;"><g class="fills"/><g class="errorbars"/><g class="lines"><path class="js-line" d="M0,319.95L99.94,319.77L103.16,319.11L112.84,319.66L116.06,319.64L119.28,319.61L122.51,318.74L151.52,315.59L154.75,314.89L167.64,311.15L170.87,309.95L177.31,305.37L180.54,304.39L196.66,301.48L199.88,300.23L222.45,295.41L225.67,295.22L238.57,293.94L241.79,292.22L245.01,291.15L248.24,287.71L254.69,286.29L257.91,285.85L270.81,283.29L274.03,282.28L280.48,280.32L283.7,279.79L286.93,278.56L290.15,272.92L293.37,272.57L296.6,262.58L306.27,256.82L309.49,252.53L312.72,250.58L315.94,247.15L322.39,238.38L325.61,235.9L328.84,231.03L332.06,224.61L338.51,213.75L341.73,210.29L354.63,191.51L357.85,187.37L361.07,182.66L364.3,176.18L367.52,169.12L370.75,164.39L373.97,159.9L377.19,152.03L386.87,133.7L390.09,122.98L393.31,114.64L396.54,103.04L399.76,92.08L402.99,76.57L406.21,66.62L409.43,60.67L412.66,53.13L415.88,43.21L419.1,35.81L422.33,31.08L432,16" style="vector-effect: none; fill: none; stroke: rgb(157, 117, 93); stroke-opacity: 1; stroke-width: 2px; opacity: 1;"/></g><g class="points"/><g class="text"/></g></g></g><g class="overplot"/><path class="xlines-above crisp" d="M0,0" style="fill: none;"/><path class="ylines-above crisp" d="M0,0" style="fill: none;"/><g class="overlines-above"/><g class="xaxislayer-above"><g class="xtick"><text text-anchor="middle" x="0" y="433" transform="translate(124.17,0)" style="font-family: Raleway; font-size: 12px; fill: rgb(242, 245, 250); fill-opacity: 1; white-space: pre; opacity: 1;">2014</text></g><g class="xtick"><text text-anchor="middle" x="0" y="433" style="font-family: Raleway; font-size: 12px; fill: rgb(242, 245, 250); fill-opacity: 1; white-space: pre; opacity: 1;" transform="translate(202.61,0)">2016</text></g><g class="xtick"><text text-anchor="middle" x="0" y="433" style="font-family: Raleway; font-size: 12px; fill: rgb(242, 245, 250); fill-opacity: 1; white-space: pre; opacity: 1;" transform="translate(281.16999999999996,0)">2018</text></g><g class="xtick"><text text-anchor="middle" x="0" y="433" style="font-family: Raleway; font-size: 12px; fill: rgb(242, 245, 250); fill-opacity: 1; white-space: pre; opacity: 1;" transform="translate(359.62,0)">2020</text></g><g class="xtick"><text text-anchor="middle" x="0" y="433" style="font-family: Raleway; font-size: 12px; fill: rgb(242, 245, 250); fill-opacity: 1; white-space: pre; opacity: 1;" transform="translate(438.17,0)">2022</text></g></g><g class="yaxislayer-above"><g class="ytick"><text text-anchor="end" x="79" y="4.199999999999999" transform="translate(0,420)" style="font-family: Raleway; font-size: 12px; fill: rgb(242, 245, 250); fill-opacity: 1; white-space: pre; opacity: 1;">0</text></g><g class="ytick"><text text-anchor="end" x="79" y="4.199999999999999" style="font-family: Raleway; font-size: 12px; fill: rgb(242, 245, 250); fill-opacity: 1; white-space: pre; opacity: 1;" transform="translate(0,363.08)">10k</text></g><g class="ytick"><text text-anchor="end" x="79" y="4.199999999999999" style="font-family: Raleway; font-size: 12px; fill: rgb(242, 245, 250); fill-opacity: 1; white-space: pre; opacity: 1;" transform="translate(0,306.16999999999996)">20k</text></g><g class="ytick"><text text-anchor="end" x="79" y="4.199999999999999" style="font-family: Raleway; font-size: 12px; fill: rgb(242, 245, 250); fill-opacity: 1; white-space: pre; opacity: 1;" transform="translate(0,249.25)">30k</text></g><g class="ytick"><text text-anchor="end" x="79" y="4.199999999999999" style="font-family: Raleway; font-size: 12px; fill: rgb(242, 245, 250); fill-opacity: 1; white-space: pre; opacity: 1;" transform="translate(0,192.32999999999998)">40k</text></g><g class="ytick"><text text-anchor="end" x="79" y="4.199999999999999" style="font-family: Raleway; font-size: 12px; fill: rgb(242, 245, 250); fill-opacity: 1; white-space: pre; opacity: 1;" transform="translate(0,135.41)">50k</text></g></g><g class="overaxes-above"/></g></g><g class="polarlayer"/><g class="smithlayer"/><g class="ternarylayer"/><g class="geolayer"/><g class="funnelarealayer"/><g class="pielayer"/><g class="iciclelayer"/><g class="treemaplayer"/><g class="sunburstlayer"/><g class="glimages"/><defs id="topdefs-d5726e"><g class="clips"/><clipPath id="legendd5726e"><rect width="167" height="67" x="0" y="0"/></clipPath></defs><g class="layer-above"><g class="imagelayer"/><g class="shapelayer"/></g><g class="infolayer"><g class="legend" pointer-events="all" transform="translate(520.64,100)"><rect class="bg" shape-rendering="crispEdges" style="stroke: rgb(68, 68, 68); stroke-opacity: 1; fill: rgb(17, 17, 17); fill-opacity: 1; stroke-width: 0px;" width="167" height="67" x="0" y="0"/><g class="scrollbox" transform="" clip-path="url(#legendd5726e)"><text class="legendtitletext" text-anchor="start" x="2" y="18.2" style="font-family: Raleway; font-size: 14px; fill: rgb(242, 245, 250); fill-opacity: 1; white-space: pre;">Possède une prise type 2</text><g class="groups" transform=""><g class="traces" transform="translate(0,32.7)" style="opacity: 1;"><text class="legendtext" text-anchor="start" x="40" y="4.680000000000001" style="font-family: Raleway; font-size: 12px; fill: rgb(242, 245, 250); fill-opacity: 1; white-space: pre;">Non</text><g class="layers"><g class="legendfill"><path class="js-fill" d="M5,-2h30v6h-30z" style="stroke-width: 0; fill: rgb(186, 176, 172); fill-opacity: 0.5;"/></g><g class="legendlines"><path class="js-line" d="M5,-2h30" style="fill: none; stroke: rgb(186, 176, 172); stroke-opacity: 1; stroke-width: 2px;"/></g><g class="legendsymbols"><g class="legendpoints"/></g></g><rect class="legendtoggle" x="0" y="-9.5" width="63.3125" height="19" style="fill: rgb(0, 0, 0); fill-opacity: 0;"/></g></g><g class="groups" transform=""><g class="traces" transform="translate(0,51.7)" style="opacity: 1;"><text class="legendtext" text-anchor="start" x="40" y="4.680000000000001" style="font-family: Raleway; font-size: 12px; fill: rgb(242, 245, 250); fill-opacity: 1; white-space: pre;">Oui</text><g class="layers"><g class="legendfill"><path class="js-fill" d="M5,-2h30v6h-30z" style="stroke-width: 0; fill: rgb(157, 117, 93); fill-opacity: 0.5;"/></g><g class="legendlines"><path class="js-line" d="M5,-2h30" style="fill: none; stroke: rgb(157, 117, 93); stroke-opacity: 1; stroke-width: 2px;"/></g><g class="legendsymbols"><g class="legendpoints"/></g></g><rect class="legendtoggle" x="0" y="-9.5" width="63.3125" height="19" style="fill: rgb(0, 0, 0); fill-opacity: 0;"/></g></g></g><rect class="scrollbar" rx="20" ry="3" width="0" height="0" style="fill: rgb(128, 139, 164); fill-opacity: 1;" x="0" y="0"/></g><g class="g-gtitle"><text class="gtitle" x="35" y="50" text-anchor="start" dy="0em" style="font-family: Raleway; font-size: 17px; fill: rgb(242, 245, 250); opacity: 1; font-weight: normal; white-space: pre;">Nombre cumulé de points en fonction s'il possèdent une prise type 2</text></g><g class="g-xtitle"><text class="xtitle" x="296" y="460.3" text-anchor="middle" style="font-family: Raleway; font-size: 14px; fill: rgb(242, 245, 250); opacity: 1; font-weight: normal; white-space: pre;">Date de mise en service</text></g><g class="g-ytitle"><text class="ytitle" transform="rotate(-90,34.434375,260)" x="34.434375" y="260" text-anchor="middle" style="font-family: Raleway; font-size: 14px; fill: rgb(242, 245, 250); opacity: 1; font-weight: normal; white-space: pre;">Nombre de points de charge</text></g></g></svg>